<?xml version="1.0" encoding="UTF-8"?>
<svg id="Boite_aux_lettres" data-name="Boite aux lettres" xmlns="http://www.w3.org/2000/svg" xmlns:xlink="http://www.w3.org/1999/xlink" viewBox="0 0 125.19 184.71">
  <defs>
    <style>
      .cls-1 {
        fill: #a3a3a3;
      }

      .cls-1, .cls-2, .cls-3, .cls-4, .cls-5, .cls-6, .cls-7, .cls-8, .cls-9, .cls-10, .cls-11, .cls-12, .cls-13 {
        stroke: #000;
      }

      .cls-1, .cls-2, .cls-3, .cls-4, .cls-6, .cls-7, .cls-8, .cls-14, .cls-9, .cls-10, .cls-15, .cls-11, .cls-12, .cls-16, .cls-13 {
        stroke-width: .25px;
      }

      .cls-1, .cls-3, .cls-4, .cls-5, .cls-6, .cls-8, .cls-13 {
        stroke-linecap: round;
        stroke-linejoin: round;
      }

      .cls-2 {
        fill: #6eceab;
      }

      .cls-2, .cls-7, .cls-14, .cls-9, .cls-10, .cls-15, .cls-11, .cls-12, .cls-16 {
        stroke-miterlimit: 10;
      }

      .cls-3 {
        fill: #d3eaea;
      }

      .cls-4 {
        fill: #f2f2f2;
      }

      .cls-5, .cls-7, .cls-8 {
        fill: none;
      }

      .cls-6 {
        fill: #fff;
      }

      .cls-14 {
        fill: #b5211e;
      }

      .cls-14, .cls-15, .cls-16 {
        stroke: #020000;
      }

      .cls-9 {
        fill: #ce390b;
      }

      .cls-10 {
        fill: #fc453a;
      }

      .cls-15 {
        fill: url(#Dégradé_sans_nom_17);
      }

      .cls-11 {
        fill: #dd2a2a;
      }

      .cls-12 {
        fill: #a8bedd;
      }

      .cls-16 {
        fill: url(#Dégradé_sans_nom_17-2);
      }

      .cls-13 {
        fill: #c5d3d1;
      }
    </style>
    <linearGradient id="Dégradé_sans_nom_17" data-name="Dégradé sans nom 17" x1="-5.58" y1="72.7" x2="38.64" y2="47.17" gradientUnits="userSpaceOnUse">
      <stop offset=".58" stop-color="#b5211e"/>
      <stop offset="1" stop-color="#8b0000"/>
    </linearGradient>
    <linearGradient id="Dégradé_sans_nom_17-2" data-name="Dégradé sans nom 17" x1="4.48" y1="82.3" x2="46.59" y2="82.3" xlink:href="#Dégradé_sans_nom_17"/>
  </defs>
  <path class="cls-10" d="M25.83,29.93c-3.22-.81-6.05-.89-8.53-.39C-6.08,34.25,1.56,91.3,1.63,92.16l10,5.61h.01l4.26,2.38h.01s19.83,11.11,19.83,11.11l13.48,7.55h0c.14-1.17,9.73-80.61-23.39-88.88Zm20.7,77.64h0c-.01,.27-.03,.51-.04,.75-.17,2.64-.32,4.18-.32,4.18l-5.05-2.71-13.59-7.3h-.01l-10.7-5.74-12.34-6.62h0c-.18-1.03-9.91-58.54,19.32-54.51,12.71,1.75,18.61,16.26,21.23,32.22,.79,4.87,1.28,9.88,1.56,14.7,.44,7.47,.38,14.5,.19,19.86-.08,1.97-.16,3.71-.25,5.17Z"/>
  <path class="cls-8" d="M46.78,102.4c-.08,1.97-.16,3.71-.25,5.17h0c-.01,.27-.03,.51-.04,.75-.17,2.64-.32,4.18-.32,4.18l-5.05-2.71-13.59-7.3h-.01l-10.7-5.74,14.17-2.77,5.77-5.94,6.72-6.91,3.11,1.41c.44,7.47,.38,14.5,.19,19.86Z"/>
  <path class="cls-15" d="M45.03,67.84L4.48,90.12c-.18-1.02-9.91-58.53,19.32-54.5,12.71,1.75,18.61,16.26,21.23,32.22Z"/>
  <path class="cls-16" d="M46.59,82.54l-3.11-1.41-6.72,6.91-5.77,5.94-14.17,2.77-12.34-6.62h0s40.55-22.29,40.55-22.29c.79,4.87,1.28,9.88,1.56,14.7Z"/>
  <path class="cls-14" d="M46.78,102.4c-.08,1.97-.16,3.71-.25,5.17h0c-.01,.27-.03,.51-.04,.75-.17,2.64-.32,4.18-.32,4.18l-5.05-2.71-13.59-7.3h-.01l-10.7-5.74,14.17-2.77,5.77-5.94,6.72-6.91,3.11,1.41c.44,7.47,.38,14.5,.19,19.86Z"/>
  <g>
    <polygon class="cls-12" points="46.63 108.28 46.49 108.32 41.12 109.79 35.74 111.26 22.83 114.79 7.78 98.52 11.63 97.77 11.64 97.77 16.82 96.75 30.99 93.98 34.79 93.24 41.17 91.99 44.19 91.4 44.97 96.78 45.97 103.72 46.53 107.57 46.53 107.58 46.63 108.28"/>
    <polyline class="cls-12" points="7.78 98.52 31.37 103.27 44.19 91.4"/>
  </g>
  <path class="cls-10" d="M124.54,75.37l-44.43,25.62v-.09l-14.7,8.57-1.72,.99v-.08l-14.47,8.42c.14-1.16,9.73-80.6-23.39-88.87-3.22-.81-6.05-.89-8.53-.39,4.97-1.89,52.29-13.45,68.76-16.43l-.19,47.84h-.05c-.5,.02-1.06-.12-1.06-.82,0,0-3.25-.15-3.25,1.47,0,0,0,3.16,1.47,3.05,1.1-.07,2.06-.23,2.88-.43l-.05,11.37,1.6,.3,1.68-1.52-.1-11.4c.89-.55,1.27-1.01,1.27-1.01,0,0-.05-2.8-.41-2.34-.23,.3-.53,.55-.88,.76l-.35-41.46,2.3,1.83,8.28-5.73c29.05,13.55,25.34,60.35,25.34,60.35Z"/>
  <path class="cls-13" d="M90.87,167.73c-1.16,4.04-3.3,3.85-4.4,3.44-.43-.16-.7-.36-.7-.36l-5.06-.03-4.65-.03h0l-2.71-.02-2.74-.02h-.41c-.44,.13-.86,.1-1.25-.04-1.73-.65-2.91-3.66-2.51-6.16,0-.02,0-.04,0-.06,.11,.08,.22,.17,.34,.27,2.04,1.33,2.37,3.95,2.37,5.44,.53-.66,1.85-.91,2.43-.81,.21-.22,.43-.43,.68-.63,2.04-1.67,3.6-.94,4.65,.22,.71-.91,1.35-.61,1.77-.17,.05-.07,.09-.14,.15-.21-.5-1.57-.98-4.69,1.82-7.1l-.06-8.74c.52-.05,1.12,.03,1.78,.28,2.86,1.07,3.28,4.21,3.28,5.91,.55-.68,1.92-.92,2.48-.8,.49,.1,1.13,.57,1.7,1.35,1.19,1.59,2.12,4.5,1.04,8.27Z"/>
  <path class="cls-3" d="M68.94,170.67c0,.94-.15,1.96-.47,3.06-1.6,5.6-5.1,3.08-5.1,3.08l-13.52-.09h-2.06c-2.77,.81-4.87-4.58-3.31-7.7,1.38-2.75,2.58-.62,2.78-.24-.27-.55-2.24-5.01,1.61-8.16,2.82-2.31,4.72-.03,5.63,1.6,.19-.4,1.1-3,3.29-3.45v6.22c1.19,.34,2.07,1.53,2.61,2.49,.17-.37,.97-2.63,2.83-3.31,.01,.27,.02,.52,.02,.74,.15-.18,.36-.33,.6-.45,.46-.24,1.02-.36,1.45-.38,.17,0,.32,.01,.43,.03,.21,.05,.46,.16,.71,.34,.11,.08,.22,.17,.34,.27,1.08,.98,2.22,3.07,2.16,5.95Z"/>
  <path class="cls-11" d="M63.85,163.99c-.22,.04-.43,.1-.62,.18-1.86,.68-2.66,2.94-2.83,3.31-.54-.96-1.42-2.15-2.62-2.49v-6.22s.23-45.04,.23-45.04l.64-.37,4.76-2.73,.28-.16,.16,53.52Z"/>
  <path class="cls-10" d="M78.83,168.56c-.06,.07-.1,.14-.15,.21-.42-.44-1.06-.74-1.77,.17-1.05-1.16-2.61-1.89-4.65-.22-.25,.2-.47,.41-.68,.63-.58-.1-1.9,.15-2.43,.81,0-1.49-.33-4.11-2.37-5.44-.12-.1-.23-.19-.34-.27-.25-.18-.5-.29-.71-.34-.11-.02-.26-.03-.43-.03-.53-.13-1.02-.15-1.45-.09l-.16-53.52h0s1.72-1,1.72-1l14.7-8.48,.48,51.73,.06,8.74c-2.8,2.41-2.32,5.53-1.82,7.1Z"/>
  <polygon class="cls-6" points="80.11 100.9 80.11 100.99 65.41 109.47 80.11 100.9"/>
  <polyline class="cls-5" points="80.65 161.46 80.69 167.02 80.71 170.78 80.75 176.98"/>
  <line class="cls-5" x1="57.78" y1="164.99" x2="57.76" y2="170.87"/>
  <path class="cls-8" d="M86.06,13.11c.94-.18,1.78-.32,2.5-.43,1.56-.24,2.6-.33,2.97-.25,2.78,.62,5.33,1.49,7.67,2.59"/>
  <line class="cls-8" x1="58.01" y1="113.73" x2="49.22" y2="118.8"/>
  <line class="cls-8" x1="63.69" y1="110.46" x2="58.65" y2="113.36"/>
  <line class="cls-8" x1="63.87" y1="171.48" x2="63.85" y2="163.99"/>
  <polygon class="cls-9" points="109.22 8.09 99.2 15.02 90.92 20.75 88.62 18.92 88.97 60.38 88.99 62.97 89.09 74.37 87.41 75.89 85.81 75.59 85.86 64.22 85.87 61.39 85.87 60.95 86.06 13.11 86.11 .15 109.22 8.09"/>
  <g>
    <path class="cls-8" d="M86.59,60.84s-.33,.1-.72,.12h0s.72-.12,.72-.12Z"/>
    <path class="cls-1" d="M90.26,61.96s-.38,.46-1.27,1.01c-.7,.42-1.72,.9-3.13,1.25-.82,.2-1.78,.36-2.88,.43-1.47,.11-1.47-3.05-1.47-3.05,0,0,2.17,.14,4.36-.21,1.13-.18,2.26-.48,3.1-1.01,.35-.21,.65-.46,.88-.76,.36-.46,.41,2.34,.41,2.34Z"/>
  </g>
  <path class="cls-4" d="M74.37,178.98c-1.6,5.6-5.1,3.08-5.1,3.08h-1.51s-14.07-.1-14.07-.1c-2.12,.63-3.85-2.39-3.84-5.24,0-.87,.16-1.72,.53-2.44,1.37-2.76,2.58-.62,2.77-.24-.26-.55-2.23-5.01,1.62-8.16,1.16-.96,2.17-1.13,3.01-.89,1.2,.34,2.08,1.53,2.62,2.49,.17-.37,.97-2.63,2.83-3.31,.19-.08,.4-.14,.62-.18,.43-.06,.92-.04,1.45,.09,.18,.05,.37,.11,.57,.18,.2,.07,.39,.16,.56,.25,.12,.07,.24,.13,.35,.21,2.04,1.33,2.37,3.95,2.37,5.44,.53-.66,1.85-.91,2.43-.81,.02,0,.04,.01,.05,.01,.5,.11,1.14,.58,1.71,1.37,1.19,1.6,2.11,4.5,1.03,8.25Z"/>
  <path class="cls-3" d="M100.41,174.44c-1.61,5.6-5.1,3.08-5.1,3.08l-3.03-.02-12.56-.08c-2.49,.74-4.44-3.54-3.67-6.67h0c.07-.36,.19-.7,.35-1.01,.17-.33,.33-.6,.5-.8,.71-.91,1.35-.61,1.77-.17,.27,.27,.44,.59,.51,.72-.06-.13-.21-.46-.36-.93-.5-1.57-.98-4.69,1.82-7.1,.05-.04,.1-.09,.15-.13,2.82-2.31,4.72-.03,5.63,1.6,.19-.41,1.13-3.08,3.4-3.47,.6-.1,1.29-.05,2.08,.25,2.85,1.08,3.27,4.22,3.28,5.91,.55-.68,1.91-.92,2.47-.8,1.51,.32,4.35,4.02,2.75,9.62Z"/>
  <path class="cls-4" d="M92.86,180.83c-1.6,5.6-5.1,3.08-5.1,3.08l-15.58-.1c-1.49,.44-2.79-.92-3.42-2.76-.55-1.57-.61-3.49,.11-4.92,1.38-2.76,2.58-.63,2.78-.25-.22-.44-1.53-3.39-.05-6.17,.25-.46,.57-.92,.98-1.36,.21-.22,.43-.43,.68-.63,2.04-1.67,3.6-.94,4.65,.22,.41,.44,.73,.93,.98,1.38,.09-.19,.33-.85,.79-1.55,.05-.07,.09-.14,.15-.21,.43-.62,1.04-1.24,1.86-1.54,.72-.28,1.6-.32,2.67,.08,1.99,.75,2.8,2.5,3.11,4.07,.13,.68,.17,1.33,.17,1.84,.56-.68,1.92-.92,2.48-.8,1.07,.22,2.82,2.17,3.16,5.29,.14,1.26,.04,2.72-.42,4.33Z"/>
  <g>
    <path class="cls-2" d="M47.04,101.97l-.26,.43-.81,1.32-2.09,3.44s-4.17-2.75-7.01-5.59c-.57-.57-1.32-1.02-2.17-1.38-3.41-1.47-8.31-1.47-8.31-1.47l4.6-4.74,5.77-5.94,6.72-6.91,3.11,1.41,.24,.11,.21,19.32Z"/>
    <polygon class="cls-2" points="37.75 90.08 41.3 92.06 37.72 96.22 34.21 93.85 37.75 90.08"/>
    <line class="cls-7" x1="39.85" y1="97.59" x2="43.86" y2="100.64"/>
    <line class="cls-7" x1="41.38" y1="97.17" x2="44.12" y2="99.27"/>
    <line class="cls-7" x1="41.61" y1="96.22" x2="45.19" y2="98.81"/>
    <line class="cls-7" x1="42.18" y1="94.96" x2="46.37" y2="97.71"/>
    <line class="cls-7" x1="38.36" y1="89.54" x2="41.91" y2="91.41"/>
  </g>
  <line class="cls-7" x1="45.1" y1="67.8" x2="45.03" y2="67.84"/>
</svg>