<svg xmlns="http://www.w3.org/2000/svg" xmlns:xlink="http://www.w3.org/1999/xlink" viewBox="0 0 31.21 30.86"><defs><style>.cls-1{fill:url(#Dégradé_sans_nom_8735);}.cls-2{fill:url(#Dégradé_sans_nom_8744);}.cls-3{fill:url(#Dégradé_sans_nom_8744-2);}.cls-4{fill:url(#Dégradé_sans_nom_8735-2);}.cls-5{fill:url(#Dégradé_sans_nom_8744-3);}.cls-6{fill:url(#Dégradé_sans_nom_8744-4);}.cls-7{fill:url(#Dégradé_sans_nom_8713);}</style><radialGradient id="Dégradé_sans_nom_8735" cx="-231.23" cy="-334.97" r="15.45" gradientTransform="matrix(-0.33, 0.95, -0.95, -0.33, -366.98, 116.34)" gradientUnits="userSpaceOnUse"><stop offset="0" stop-color="#38c70a"/><stop offset="0.12" stop-color="#248a05"/><stop offset="0.38" stop-color="#076000"/><stop offset="0.69" stop-color="#003d00"/><stop offset="1" stop-color="#012500"/></radialGradient><radialGradient id="Dégradé_sans_nom_8744" cx="22.87" cy="11.46" r="10.1" gradientUnits="userSpaceOnUse"><stop offset="0" stop-color="#fdf5a5"/><stop offset="0.12" stop-color="#e5ee4e"/><stop offset="0.38" stop-color="#aac315"/><stop offset="0.69" stop-color="#b0a51b"/><stop offset="1" stop-color="#556004"/></radialGradient><radialGradient id="Dégradé_sans_nom_8744-2" cx="-225.06" cy="-334.92" r="7.43" gradientTransform="matrix(-0.33, 0.95, -0.95, -0.33, -367.09, 116.09)" xlink:href="#Dégradé_sans_nom_8744"/><radialGradient id="Dégradé_sans_nom_8735-2" cx="66.79" cy="-116.08" r="15.45" gradientTransform="matrix(0.9, 0.43, -0.43, 0.9, -103.11, 96.18)" xlink:href="#Dégradé_sans_nom_8735"/><radialGradient id="Dégradé_sans_nom_8744-3" cx="11.29" cy="23.18" r="10.08" xlink:href="#Dégradé_sans_nom_8744"/><radialGradient id="Dégradé_sans_nom_8744-4" cx="73.26" cy="-116.03" r="7.43" gradientTransform="matrix(0.9, 0.43, -0.43, 0.9, -103.63, 96.13)" xlink:href="#Dégradé_sans_nom_8744"/><radialGradient id="Dégradé_sans_nom_8713" cx="19.48" cy="22.34" r="7.48" gradientUnits="userSpaceOnUse"><stop offset="0" stop-color="#b4f9bb"/><stop offset="0.12" stop-color="#98f4a6"/><stop offset="0.38" stop-color="#62f468"/><stop offset="0.69" stop-color="#29e540"/><stop offset="1" stop-color="#179128"/></radialGradient></defs><title>Fichier 18</title><g id="Calque_2" data-name="Calque 2"><g id="Modale_déco_Catalogue" data-name="Modale déco Catalogue"><path class="cls-1" d="M23.63.07c.84,4.8.53,4.47,4.15,4.7-2.75,3.25.93,4.3,3,5.41-.17.47-1.47.52-2.12,1.11-2.09,3.9.81,4.06,1.25,4.6-.44.67-2.37-.41-2.69.7a2.75,2.75,0,0,0,.39,2.24c.22.54-1.54.58-1.78,1.78s-3.46-.38-3.82,1.3-3.23-1.17-4.24-1.46.17-.64-.42-1-1.13.28-1.33-.23c0-.1,1.78-1.43,1.46-2s-.76-2.54-1.79-2.61c1.85-1.52,2.13-1.55,2.25-3.66,0-.48-.85-1.14-1.16-1.69.69-.06,1.83,0,2.3-.35,1.28-1.39.76-2.55.27-3.54A5,5,0,0,0,23.63.07Z"/><path class="cls-2" d="M23.62,0a7,7,0,0,1,.25,1l.18.91a8.41,8.41,0,0,0,.5,1.77c.22.57.78.73,1.39.78s1.23.06,1.86.07h.47L28,4.94a3.9,3.9,0,0,0-.79,1.59,1.54,1.54,0,0,0,.55,1.38,7.23,7.23,0,0,0,1.51,1,8.31,8.31,0,0,1,1.68,1l.28.25-.11.19a1,1,0,0,1-.72.45l-.62.12a2.3,2.3,0,0,0-1,.5l0,0c-.09.22-.19.43-.27.65s-.13.45-.2.67a2.91,2.91,0,0,0,0,1.28,1.52,1.52,0,0,0,.65.9,5.06,5.06,0,0,0,.54.36,2.41,2.41,0,0,1,.66.52l.15.17-.14.15a1,1,0,0,1-1,.25c-.28-.05-.55-.11-.81-.13a1.29,1.29,0,0,0-.74.11c-.21.14-.22.36-.23.62a2.74,2.74,0,0,0,.41,1.36,4.15,4.15,0,0,1,.16.4.66.66,0,0,1,0,.46.57.57,0,0,1-.27.27c-.33.16-.58.16-.84.27a1.09,1.09,0,0,0-.59.48,2.22,2.22,0,0,0-.14.32,1.27,1.27,0,0,1-.14.4.88.88,0,0,1-.88.32c-.29,0-.55-.05-.83-.06a4.57,4.57,0,0,0-1.61.11.87.87,0,0,0-.56.53c-.09.24-.15.57-.43.66a2.26,2.26,0,0,1-1.53-.48c-.46-.29-.9-.61-1.35-.91a6.25,6.25,0,0,0-.7-.43c-.22-.15-.54-.15-.71-.37s.07-.26.12-.38a.23.23,0,0,0-.11-.34.93.93,0,0,0-.78,0,.79.79,0,0,1-.44,0,.33.33,0,0,1-.18-.17s0,0,0-.07a.21.21,0,0,1,0-.12l.07-.09c.18-.21.38-.39.56-.59a4.87,4.87,0,0,0,.53-.59c.16-.2.28-.44.19-.58-.24-.53-.38-1-.61-1.52s-.54-1-1-1l-.22,0,.17-.15c.42-.35.86-.69,1.26-1.06a2.23,2.23,0,0,0,.76-1.34c0-.26,0-.53.05-.8V11a.72.72,0,0,0-.13-.24c-.29-.39-.72-.74-1.08-1.28L16.18,9l.56,0a9.34,9.34,0,0,1,1.18,0,2,2,0,0,0,1-.17l0,0a2.32,2.32,0,0,0,.75-1.58,2.58,2.58,0,0,0-.17-.86A5.49,5.49,0,0,0,19,5.59l-.29-.49L19.3,5a4.62,4.62,0,0,0,2.89-1.67,5.6,5.6,0,0,0,.9-1.51A12.61,12.61,0,0,0,23.62,0Zm0,.14a3.26,3.26,0,0,1,0,1.89,5.23,5.23,0,0,1-.8,1.85,4.48,4.48,0,0,1-1.51,1.39,4.42,4.42,0,0,1-2,.53l.32-.56a10,10,0,0,1,.25,1,3,3,0,0,1,.13,1,2.86,2.86,0,0,1-.27,1,4.83,4.83,0,0,1-.58.84h0A2.8,2.8,0,0,1,18,9.54c-.4.06-.8.07-1.17.09l.26-.49c.21.4.66.78,1,1.32a1.07,1.07,0,0,1,.15.52l-.05.43a8.28,8.28,0,0,1-.16.84A2.69,2.69,0,0,1,17,13.67c-.42.37-.85.71-1.28,1.06l-.05-.17c.64.06,1,.64,1.24,1.11s.43,1,.65,1.49a.61.61,0,0,1,0,.51,1.49,1.49,0,0,1-.23.39,5.6,5.6,0,0,1-.56.63c-.21.18-.41.36-.62.52l-.07.06s0,0,0,0,0,0,0,0a.25.25,0,0,0,.09.13.62.62,0,0,0,.36,0,1.21,1.21,0,0,1,.8.1.23.23,0,0,1,.11.34c-.05.12-.17.24-.12.38s.49.21.72.36a6.12,6.12,0,0,1,.69.43c.46.3.9.62,1.36.9a2.31,2.31,0,0,0,1.51.48c.27-.09.32-.4.41-.65a.91.91,0,0,1,.58-.55,4.43,4.43,0,0,1,1.62-.12A2.45,2.45,0,0,0,25,21c.26-.06.49-.21.53-.36a2,2,0,0,1,.12-.36,1.19,1.19,0,0,1,.29-.37c.24-.19.49-.32.71-.49a2.57,2.57,0,0,0,.59-.52s0-.07,0,0,0,.05,0,.07,0,0,0,0a2,2,0,0,1-.19-.33,2.51,2.51,0,0,1-.27-.88,2.5,2.5,0,0,1,.14-.92,1.14,1.14,0,0,1,.57-.74,2.14,2.14,0,0,1,.86-.1,5.47,5.47,0,0,0,.81,0c.26,0,.5-.13.51-.23l0,.32-.56-.21a3,3,0,0,1-.68-.36,2,2,0,0,1-.86-1.43,3.63,3.63,0,0,1,.29-1.53c.2-.45.45-.87.68-1.29v0h0a4.57,4.57,0,0,1,1.11-.59,2.39,2.39,0,0,0,.52-.29c.16-.09.28-.27.22-.27l.17.44a8.51,8.51,0,0,1-1.81-.74,6,6,0,0,1-1.69-1.22,2.3,2.3,0,0,1-.59-2.15,4.83,4.83,0,0,1,1.08-1.78l.18.42c-.62-.07-1.24-.1-1.87-.19a2.64,2.64,0,0,1-1-.28,1.44,1.44,0,0,1-.66-.78,8.7,8.7,0,0,1-.43-1.85L23.7,1A7.86,7.86,0,0,1,23.63.14Z"/><path class="cls-3" d="M23,18.8l.37-.14a2.78,2.78,0,0,0,.42-.22,2.7,2.7,0,0,0,.39-.27,2,2,0,0,0,.32-.33,1.73,1.73,0,0,1-.38.24,2.14,2.14,0,0,1-.42.16,3.2,3.2,0,0,1-.42.1l-.16,0c.08-.34.17-.69.24-1l.15-.72.28-.11.3-.19.26-.23a2.75,2.75,0,0,0,.22-.26,1.71,1.71,0,0,1-.26.21,2.82,2.82,0,0,1-.29.18,1.88,1.88,0,0,1-.3.12l-.17,0A29.43,29.43,0,0,0,24,13.29a2.21,2.21,0,0,0,.65-.47,5.2,5.2,0,0,0,.53-.63,11.49,11.49,0,0,0,.89-1.37,11.33,11.33,0,0,1-.95,1.32,6.28,6.28,0,0,1-.56.59,2.36,2.36,0,0,1-.54.37l0-.37c.06-.76.09-1.52.11-2.29l.36-.22a1.41,1.41,0,0,0,.37-.4,1.38,1.38,0,0,1-.4.36l-.33.17c0-.62,0-1.24,0-1.86a.53.53,0,0,0,.12-.14,1.07,1.07,0,0,0,.13-.19A2.12,2.12,0,0,0,24.5,8c0-.08.05-.15.07-.22a1.24,1.24,0,0,1-.1.2.82.82,0,0,1-.12.2,1.15,1.15,0,0,1-.14.17l-.07.07c-.05-1.63-.18-3.26-.39-4.87h0a46,46,0,0,1,.09,5.87c-.29-.17-.59-.35-.87-.54l-.49-.34-.12-.09a.52.52,0,0,1-.11-.1l-.11-.1A.94.94,0,0,1,22,8.08a.94.94,0,0,0,.09.12,1.56,1.56,0,0,0,.21.21l.11.1q.24.2.48.36c.29.21.59.41.89.6,0,.81-.1,1.61-.19,2.41a5.69,5.69,0,0,1-.56-.26,5.89,5.89,0,0,1-.64-.37,3.68,3.68,0,0,1-.59-.45,1.47,1.47,0,0,1-.41-.6,1.57,1.57,0,0,0,.38.63,3.85,3.85,0,0,0,.57.5,6.81,6.81,0,0,0,.63.41c.19.11.39.22.6.32,0,.21-.05.41-.08.62-.09.71-.21,1.42-.35,2.12l-.84-.33-.93-.4c-.61-.28-1.23-.56-1.83-.87.57.36,1.16.69,1.76,1,.29.16.59.33.89.48l.88.44c-.13.66-.29,1.32-.47,2a8.15,8.15,0,0,1-.86-.16,9.32,9.32,0,0,1-.91-.23A7,7,0,0,1,20,16.4a3.14,3.14,0,0,1-.39-.24.72.72,0,0,1-.27-.37.7.7,0,0,0,.24.41,1.78,1.78,0,0,0,.38.28,6.77,6.77,0,0,0,.85.43,9.44,9.44,0,0,0,.89.32c.28.09.55.18.83.25a38.34,38.34,0,0,1-1.84,4.78s.83.38,1.1,0A21.82,21.82,0,0,0,23,18.8Z"/><path class="cls-4" d="M.07,21c4.86-.29,4.51,0,5.15-3.59,2.91,3.09,4.37-.43,5.7-2.34.46.21.35,1.51.87,2.22,3.63,2.53,4.12-.34,4.71-.72.62.52-.68,2.31.39,2.76a2.75,2.75,0,0,0,2.27-.14c.57-.15.4,1.6,1.56,2s-.76,3.4.87,3.95-1.54,3.07-1.94,4-.62-.23-1,.32.15,1.14-.38,1.28c-.1,0-1.21-1.92-1.83-1.67s-2.6.47-2.78,1.48c-1.31-2-1.31-2.29-3.39-2.65-.48-.06-1.23.71-1.81,1,0-.69.23-1.82-.09-2.33-1.23-1.43-2.45-1-3.48-.66A5,5,0,0,0,.07,21Z"/><path class="cls-5" d="M0,21a7.77,7.77,0,0,1,1-.14l.93-.07a8.89,8.89,0,0,0,1.81-.3c.59-.16.82-.69.93-1.29S4.88,18,5,17.38L5,16.91l.38.34a4,4,0,0,0,1.49,1,1.55,1.55,0,0,0,1.44-.39,7.24,7.24,0,0,0,1.12-1.39,7.76,7.76,0,0,1,1.18-1.55l.28-.25.17.13a1,1,0,0,1,.37.77l0,.62a2.42,2.42,0,0,0,.39,1.1l0,0,.62.35.64.26a3,3,0,0,0,1.27.17,1.6,1.6,0,0,0,1-.55c.14-.14.26-.31.41-.49a2.34,2.34,0,0,1,.59-.6l.2-.13.13.15a1,1,0,0,1,.13,1c-.08.27-.17.53-.22.79a1.26,1.26,0,0,0,0,.75c.11.22.33.25.59.29A2.58,2.58,0,0,0,18.6,19a3.63,3.63,0,0,1,.42-.11.61.61,0,0,1,.46.06.55.55,0,0,1,.23.3c.12.34.09.6.18.86a1,1,0,0,0,.4.64,1.65,1.65,0,0,0,.31.18,1.3,1.3,0,0,1,.38.19.88.88,0,0,1,.22.91,8.18,8.18,0,0,0-.15.81A4.17,4.17,0,0,0,21,24.42a.88.88,0,0,0,.47.62c.22.12.54.21.6.51A2.25,2.25,0,0,1,21.39,27c-.34.43-.71.84-1.06,1.25a6.22,6.22,0,0,0-.51.64c-.17.2-.2.52-.45.67s-.25-.1-.36-.17a.23.23,0,0,0-.35.07.93.93,0,0,0-.12.78.74.74,0,0,1,0,.44.38.38,0,0,1-.19.16.1.1,0,0,1-.07,0,.21.21,0,0,1-.11-.05l-.08-.08c-.2-.21-.35-.43-.53-.63a4.22,4.22,0,0,0-.52-.59c-.19-.18-.41-.33-.56-.26-.55.19-1.07.26-1.58.44s-1,.42-1.14.91l-.05.22-.12-.19c-.31-.46-.6-.93-.91-1.37a2.2,2.2,0,0,0-1.25-.9,6.88,6.88,0,0,0-.79-.15l-.4,0a.7.7,0,0,0-.25.1c-.42.24-.81.63-1.39.93l-.47.23v-.55a8.72,8.72,0,0,1,.12-1.18,2.05,2.05,0,0,0-.05-1l0,0a2.33,2.33,0,0,0-1.48-.93,2.4,2.4,0,0,0-.88.08,5,5,0,0,0-.84.41l-.52.24v-.62a4.56,4.56,0,0,0-1.33-3.06,5.48,5.48,0,0,0-1.39-1.07A12.82,12.82,0,0,0,0,21Zm.14,0A3.27,3.27,0,0,1,2,21.2a5.1,5.1,0,0,1,1.75,1A4.49,4.49,0,0,1,5,23.87a4.61,4.61,0,0,1,.3,2l-.52-.38c.31-.09.67-.08,1-.14a3,3,0,0,1,1,0,2.78,2.78,0,0,1,1,.39,4.4,4.4,0,0,1,.77.66h0a2.78,2.78,0,0,1,.28,1.28,9,9,0,0,1,0,1.17l-.46-.32c.43-.16.85-.56,1.42-.8a1,1,0,0,1,.54-.09l.42.1a5.87,5.87,0,0,1,.81.26,2.57,2.57,0,0,1,1.31,1.09c.32.46.61.93.91,1.39l-.18,0c.14-.64.76-.92,1.25-1.11s1.07-.31,1.55-.48a.6.6,0,0,1,.51,0,1.69,1.69,0,0,1,.36.27,4.76,4.76,0,0,1,.56.63c.16.22.31.45.45.68l.05.07s0,0,0,0,0,0,0,0a.23.23,0,0,0,.13-.07.62.62,0,0,0,.07-.37,1.18,1.18,0,0,1,.18-.78.23.23,0,0,1,.35-.07c.12.07.22.2.36.16s.27-.46.44-.67.33-.43.51-.64c.35-.41.72-.82,1.05-1.25A2.19,2.19,0,0,0,22,25.55c-.05-.28-.35-.36-.59-.48a.9.9,0,0,1-.48-.64A4.47,4.47,0,0,1,21,22.8,2.2,2.2,0,0,0,21,22a.71.71,0,0,0-.3-.56,3.61,3.61,0,0,1-.35-.16,1.29,1.29,0,0,1-.33-.33c-.16-.26-.26-.52-.41-.76a2.62,2.62,0,0,0-.44-.65s-.07,0,0,0,0,0,.06,0,.05,0,0,0l-.35.15a2.67,2.67,0,0,1-.91.16,2.45,2.45,0,0,1-.9-.24A1.19,1.19,0,0,1,16.4,19a2.26,2.26,0,0,1,0-.86,5.9,5.9,0,0,0,.09-.81c0-.26-.07-.51-.17-.53l.33,0c-.06.07-.16.32-.28.53a3.06,3.06,0,0,1-.44.64,2,2,0,0,1-1.51.68,3.53,3.53,0,0,1-1.48-.46c-.43-.25-.82-.54-1.21-.82h0v0a4.23,4.23,0,0,1-.45-1.16,4.09,4.09,0,0,0-.23-.56c-.08-.17-.25-.31-.25-.24l.45-.12A8.45,8.45,0,0,1,10.28,17a6,6,0,0,1-1.4,1.54,2.31,2.31,0,0,1-2.21.34A4.66,4.66,0,0,1,5,17.61l.44-.14c-.14.61-.24,1.22-.4,1.84a2.83,2.83,0,0,1-.39.92,1.45,1.45,0,0,1-.85.57A8.11,8.11,0,0,1,1.94,21l-.93,0A6.54,6.54,0,0,1,.14,21Z"/><path class="cls-6" d="M18.61,23.76c0-.13-.06-.26-.1-.38s-.1-.3-.16-.45a3.3,3.3,0,0,0-.23-.41,2,2,0,0,0-.29-.36,2.17,2.17,0,0,1,.19.41,3,3,0,0,1,.12.43c0,.14,0,.29.05.44v.16q-.5-.2-1-.36L16.5,23a1.23,1.23,0,0,0-.08-.29,1.87,1.87,0,0,0-.15-.32,3,3,0,0,0-.2-.29,2.73,2.73,0,0,0-.23-.25c.06.1.13.19.18.29s.1.2.14.3a1.92,1.92,0,0,1,.09.32c0,.05,0,.11,0,.17q-1.5-.47-3-.78a2,2,0,0,0-.39-.7,6.32,6.32,0,0,0-.56-.6,11.41,11.41,0,0,0-1.26-1,12.52,12.52,0,0,1,1.2,1.1,6.1,6.1,0,0,1,.52.62,2,2,0,0,1,.31.58l-.36-.07c-.75-.15-1.51-.27-2.27-.37a2.64,2.64,0,0,0-.18-.38,1.29,1.29,0,0,0-.35-.42,1.35,1.35,0,0,1,.31.44,2.09,2.09,0,0,1,.13.35c-.61-.08-1.23-.15-1.85-.21a.74.74,0,0,0-.12-.13,1.19,1.19,0,0,0-.18-.15,1.37,1.37,0,0,0-.2-.13l-.2-.1.19.12.18.14a1.29,1.29,0,0,1,.16.17l.06.07a47,47,0,0,0-4.89-.16h0a45.65,45.65,0,0,1,5.84.58c-.2.27-.41.54-.63.8l-.39.45-.11.1-.11.1a.58.58,0,0,1-.12.1.4.4,0,0,1-.13.07A.61.61,0,0,0,8,23.43a.47.47,0,0,0,.12-.09l.11-.09.11-.11c.15-.14.28-.28.42-.43s.47-.54.69-.82c.8.14,1.59.29,2.38.47-.1.18-.21.35-.32.52a6.7,6.7,0,0,1-.45.6,3.64,3.64,0,0,1-.51.53,1.46,1.46,0,0,1-.65.34,1.46,1.46,0,0,0,.68-.31,4.35,4.35,0,0,0,.55-.5c.17-.19.33-.38.48-.58A5.58,5.58,0,0,0,12,22.4l.61.15c.69.17,1.38.37,2.06.59-.13.26-.28.53-.42.79l-.51.88c-.34.58-.69,1.16-1.06,1.72.42-.53.82-1.07,1.21-1.63.2-.27.39-.55.58-.83s.36-.54.53-.83c.65.22,1.29.45,1.91.7-.08.28-.16.56-.26.84s-.21.58-.33.87a5.29,5.29,0,0,1-.42.82,2,2,0,0,1-.28.37.77.77,0,0,1-.4.23.77.77,0,0,0,.43-.19,3.61,3.61,0,0,0,.33-.35,6.09,6.09,0,0,0,.52-.8c.15-.27.29-.56.42-.84s.24-.53.34-.81a39.14,39.14,0,0,1,4.54,2.38s.48-.78.18-1.08A21.14,21.14,0,0,0,18.61,23.76Z"/><circle class="cls-7" cx="19.48" cy="22.34" r="7.48"/></g></g></svg>