<svg xmlns="http://www.w3.org/2000/svg" xmlns:xlink="http://www.w3.org/1999/xlink" viewBox="0 0 17.94 28.96"><defs><style>.cls-1{fill:url(#Dégradé_sans_nom_8735);}.cls-2{fill:url(#Dégradé_sans_nom_8744);}.cls-3{fill:url(#Dégradé_sans_nom_8744-2);}.cls-4{fill:url(#Dégradé_sans_nom_8726);}</style><radialGradient id="Dégradé_sans_nom_8735" cx="280.48" cy="163.66" r="15.45" gradientTransform="matrix(0.24, 0.97, -0.97, 0.24, 97.13, -306.68)" gradientUnits="userSpaceOnUse"><stop offset="0" stop-color="#38c70a"/><stop offset="0.12" stop-color="#248a05"/><stop offset="0.38" stop-color="#076000"/><stop offset="0.69" stop-color="#003d00"/><stop offset="1" stop-color="#012500"/></radialGradient><radialGradient id="Dégradé_sans_nom_8744" cx="7.77" cy="10.3" r="9.39" gradientUnits="userSpaceOnUse"><stop offset="0" stop-color="#fdf5a5"/><stop offset="0.12" stop-color="#e5ee4e"/><stop offset="0.38" stop-color="#aac315"/><stop offset="0.69" stop-color="#b0a51b"/><stop offset="1" stop-color="#556004"/></radialGradient><radialGradient id="Dégradé_sans_nom_8744-2" cx="286.84" cy="164.17" r="7.43" gradientTransform="matrix(0.24, 0.97, -0.97, 0.24, 97.31, -307.09)" xlink:href="#Dégradé_sans_nom_8744"/><radialGradient id="Dégradé_sans_nom_8726" cx="10.46" cy="21.48" r="7.48" gradientTransform="translate(18.25 -1.1) rotate(45)" gradientUnits="userSpaceOnUse"><stop offset="0" stop-color="#f9ddb4"/><stop offset="0.12" stop-color="#f4ca98"/><stop offset="0.38" stop-color="#f4ae62"/><stop offset="0.69" stop-color="#e58729"/><stop offset="1" stop-color="#915717"/></radialGradient></defs><title>Fichier 26</title><g id="Calque_2" data-name="Calque 2"><g id="Modale_déco_Catalogue" data-name="Modale déco Catalogue"><path class="cls-1" d="M1.39.05C4.72,3.61,4.28,3.51,7.44,1.72,6.91,6,10.56,4.82,12.88,4.63c.13.48-.94,1.23-1.16,2.08.38,4.41,2.89,3,3.56,3.17,0,.81-2.21.95-1.87,2.06S14.48,13.27,15,13.6s-1,1.33-.52,2.46-3.1,1.58-2.49,3.19S8.61,20,7.61,20.33s-.22-.62-.89-.57-.78.85-1.23.53c-.09-.06.71-2.16.12-2.47s-2-1.71-2.92-1.2c.72-2.3.94-2.47-.11-4.3-.26-.41-1.33-.49-1.9-.78.55-.43,1.55-1,1.74-1.56.31-1.86-.76-2.55-1.71-3.1A5,5,0,0,0,1.39.05Z"/><path class="cls-2" d="M1.34,0a6.78,6.78,0,0,1,.75.68l.65.67a8.13,8.13,0,0,0,1.38,1.2,1.43,1.43,0,0,0,1.59-.1c.54-.29,1.07-.62,1.6-1l.4-.26,0,.52a3.93,3.93,0,0,0,.22,1.76,1.52,1.52,0,0,0,1.21.85,7.1,7.1,0,0,0,1.78,0,7.87,7.87,0,0,1,1.95-.08l.37.05v.22a.92.92,0,0,1-.35.77l-.45.44a2.23,2.23,0,0,0-.6,1v0c0,.24.08.47.13.7s.13.44.2.66a3.08,3.08,0,0,0,.69,1.09,1.53,1.53,0,0,0,1,.39,4.63,4.63,0,0,0,.65,0,2.12,2.12,0,0,1,.83.07l.23.07,0,.19a1,1,0,0,1-.69.75,7.37,7.37,0,0,0-.75.33,1.31,1.31,0,0,0-.56.5c-.1.23,0,.42.15.65a2.74,2.74,0,0,0,1.08.91,2.3,2.3,0,0,1,.35.25.63.63,0,0,1,.25.39.55.55,0,0,1-.08.37c-.19.31-.4.45-.56.68a1.1,1.1,0,0,0-.23.73,1.72,1.72,0,0,0,.06.34,1.71,1.71,0,0,1,.1.42.86.86,0,0,1-.57.74c-.25.14-.48.26-.72.41a4.38,4.38,0,0,0-1.29,1,.85.85,0,0,0-.17.75c.05.25.18.56,0,.79a2.27,2.27,0,0,1-1.54.43c-.54,0-1.09,0-1.63,0a7.48,7.48,0,0,0-.82,0c-.27,0-.53.18-.8.08C7,20.28,7.05,20.11,7,20a.23.23,0,0,0-.28-.22.91.91,0,0,0-.67.4.81.81,0,0,1-.35.27.36.36,0,0,1-.25,0s0,0-.06,0a.18.18,0,0,1,0-.12s0-.08,0-.12c0-.28.11-.53.15-.8a4.21,4.21,0,0,0,.12-.78c0-.26,0-.53-.16-.6-.49-.3-.88-.66-1.34-.93a1.54,1.54,0,0,0-1.43-.3l-.2.1.06-.21c.16-.53.34-1.05.48-1.58A2.2,2.2,0,0,0,3,13.47c-.11-.23-.25-.47-.39-.7l-.22-.33a.82.82,0,0,0-.24-.13c-.46-.17-1-.22-1.6-.48L0,11.62l.44-.35a10.37,10.37,0,0,1,1-.65,1.93,1.93,0,0,0,.76-.7v0A2.25,2.25,0,0,0,2,8.22a2.6,2.6,0,0,0-.61-.63,5.59,5.59,0,0,0-.86-.38L0,7l.48-.39a4.57,4.57,0,0,0,1.5-3,5.44,5.44,0,0,0-.06-1.75A12.7,12.7,0,0,0,1.34,0Zm.1.11A3.36,3.36,0,0,1,2.5,1.67a5.31,5.31,0,0,1,.34,2,4.52,4.52,0,0,1-.51,2A4.47,4.47,0,0,1,.94,7.19l0-.65c.27.19.49.47.75.69A3,3,0,0,1,2.32,8a2.69,2.69,0,0,1,.32,1,4.34,4.34,0,0,1,0,1h0v0a2.62,2.62,0,0,1-.8,1c-.3.27-.63.5-.92.72l-.05-.56c.4.23,1,.29,1.52.58a1.14,1.14,0,0,1,.42.36l.19.39a8.13,8.13,0,0,1,.32.79,2.67,2.67,0,0,1,0,1.7c-.15.54-.33,1.06-.49,1.58l-.14-.11a1.72,1.72,0,0,1,1.64.26c.49.26.93.62,1.37.88A.64.64,0,0,1,6,18.1a1.7,1.7,0,0,1,0,.45,4.38,4.38,0,0,1-.13.82c-.07.27-.15.54-.23.79l0,.08s0,0,0,0,0,0,0,0a.28.28,0,0,0,.14.06A.68.68,0,0,0,6,20.11a1.12,1.12,0,0,1,.72-.35A.23.23,0,0,1,7,20c0,.13,0,.3.1.38.27.1.53-.08.8-.08a7.49,7.49,0,0,1,.82,0c.54,0,1.09,0,1.63,0a2.23,2.23,0,0,0,1.52-.43c.18-.22.06-.5,0-.76a.88.88,0,0,1,.18-.78,4.44,4.44,0,0,1,1.29-1,2.42,2.42,0,0,0,.65-.49.7.7,0,0,0,.24-.58s-.07-.22-.1-.38a1.17,1.17,0,0,1,.05-.46c.09-.3.23-.54.32-.81a2.82,2.82,0,0,0,.22-.75c0-.05,0-.07,0,0s0,0,0,.07,0,0,0,0a2.76,2.76,0,0,1-.35-.17,2.6,2.6,0,0,1-.7-.6,2.35,2.35,0,0,1-.38-.84,1.13,1.13,0,0,1,.07-.93A2.13,2.13,0,0,1,14,10.8a4.71,4.71,0,0,0,.68-.45c.21-.16.35-.38.3-.47l.2.26c-.1,0-.35.09-.59.13a3.15,3.15,0,0,1-.77.07,2.06,2.06,0,0,1-1.5-.73,3.62,3.62,0,0,1-.58-1.44,14.5,14.5,0,0,1-.14-1.45v0h0a4.48,4.48,0,0,1,.6-1.1,3.06,3.06,0,0,0,.29-.53c.08-.17.08-.39,0-.35l.38.27A7.89,7.89,0,0,1,11,5.35a5.9,5.9,0,0,1-2.08-.1A2.27,2.27,0,0,1,7.25,3.77a4.9,4.9,0,0,1-.07-2.08L7.56,2c-.55.28-1.09.59-1.67.86a2.7,2.7,0,0,1-.95.29,1.39,1.39,0,0,1-1-.29A7.81,7.81,0,0,1,2.59,1.49L2,.8A6.54,6.54,0,0,1,1.44.11Z"/><path class="cls-3" d="M11.11,16.08c.08-.11.16-.21.23-.32a4.36,4.36,0,0,0,.24-.41,2.35,2.35,0,0,0,.17-.44,1.8,1.8,0,0,0,.09-.45,2.17,2.17,0,0,1-.19.41,4.06,4.06,0,0,1-.26.36c-.09.11-.2.22-.3.32l-.12.1-.36-1L10.34,14a2.79,2.79,0,0,0,.17-.25,2.3,2.3,0,0,0,.15-.32,2.14,2.14,0,0,0,.09-.34,1.86,1.86,0,0,0,.05-.34,3,3,0,0,1-.1.32,1.77,1.77,0,0,1-.15.31,1.57,1.57,0,0,1-.19.26.69.69,0,0,1-.11.13c-.4-1-.85-1.91-1.33-2.83a1.92,1.92,0,0,0,.28-.74,5.58,5.58,0,0,0,.11-.82,12.67,12.67,0,0,0,0-1.63,12.47,12.47,0,0,1-.09,1.62,5.35,5.35,0,0,1-.14.8,2.37,2.37,0,0,1-.25.61l-.18-.33c-.36-.67-.75-1.33-1.16-2a2.76,2.76,0,0,0,.18-.39,1.39,1.39,0,0,0,.1-.53,1.39,1.39,0,0,1-.14.52l-.18.32c-.33-.53-.68-1.05-1-1.56a1.13,1.13,0,0,0,0-.18,1.76,1.76,0,0,0,0-.23,1.6,1.6,0,0,0,0-.23A.86.86,0,0,0,6.36,6a1.85,1.85,0,0,1,0,.23v.23a1.64,1.64,0,0,1,0,.22.36.36,0,0,0,0,.1,48.76,48.76,0,0,0-3-3.87h0A48.09,48.09,0,0,1,6.64,7.73l-1,0c-.2,0-.4,0-.6,0H4.87l-.15,0-.14,0-.14,0,.14,0,.14,0,.15,0,.15,0c.2,0,.4,0,.6,0H6.69c.41.7.79,1.41,1.15,2.13l-.6.08a6.23,6.23,0,0,1-.74,0A3.64,3.64,0,0,1,5.76,10a1.52,1.52,0,0,1-.68-.28,1.54,1.54,0,0,0,.67.32,3.76,3.76,0,0,0,.74.1,6.45,6.45,0,0,0,.76,0l.68-.06.27.56c.31.64.6,1.3.86,2-.29.07-.58.13-.88.18l-1,.18c-.66.1-1.33.2-2,.28.67,0,1.35-.06,2-.11.34,0,.68-.05,1-.09s.65-.06,1-.11c.25.63.48,1.27.68,1.91-.26.12-.53.23-.81.34s-.58.21-.88.3a6.88,6.88,0,0,1-.9.2,1.85,1.85,0,0,1-.47,0,.72.72,0,0,1-.42-.15.75.75,0,0,0,.42.2,2.49,2.49,0,0,0,.47,0,7.46,7.46,0,0,0,1-.11c.31-.06.62-.14.92-.22s.56-.15.84-.25a39.51,39.51,0,0,1,1.06,5s.91-.13.95-.55A21.54,21.54,0,0,0,11.11,16.08Z"/><circle class="cls-4" cx="10.46" cy="21.48" r="7.48" transform="translate(-12.13 13.69) rotate(-45)"/></g></g></svg>