<svg xmlns="http://www.w3.org/2000/svg" xmlns:xlink="http://www.w3.org/1999/xlink" viewBox="0 0 20.95 26.3"><defs><style>.cls-1{fill:url(#Dégradé_sans_nom_8735);}.cls-2{fill:url(#Dégradé_sans_nom_8744);}.cls-3{fill:url(#Dégradé_sans_nom_8744-2);}.cls-4{fill:url(#Dégradé_sans_nom_8690);}</style><radialGradient id="Dégradé_sans_nom_8735" cx="-23.27" cy="178.79" r="15.45" gradientTransform="matrix(0.77, -0.64, 0.64, 0.77, -92.94, -132.58)" gradientUnits="userSpaceOnUse"><stop offset="0" stop-color="#38c70a"/><stop offset="0.12" stop-color="#248a05"/><stop offset="0.38" stop-color="#076000"/><stop offset="0.69" stop-color="#003d00"/><stop offset="1" stop-color="#012500"/></radialGradient><radialGradient id="Dégradé_sans_nom_8744" cx="9.04" cy="16.66" r="9.7" gradientUnits="userSpaceOnUse"><stop offset="0" stop-color="#fdf5a5"/><stop offset="0.12" stop-color="#e5ee4e"/><stop offset="0.38" stop-color="#aac315"/><stop offset="0.69" stop-color="#b0a51b"/><stop offset="1" stop-color="#556004"/></radialGradient><radialGradient id="Dégradé_sans_nom_8744-2" cx="-17.29" cy="179.34" r="7.43" gradientTransform="matrix(0.77, -0.64, 0.64, 0.77, -93.15, -132.83)" xlink:href="#Dégradé_sans_nom_8744"/><radialGradient id="Dégradé_sans_nom_8690" cx="13.46" cy="7.48" r="7.48" gradientUnits="userSpaceOnUse"><stop offset="0" stop-color="#fcb6b4"/><stop offset="0.12" stop-color="#f79c97"/><stop offset="0.38" stop-color="#f56d62"/><stop offset="0.69" stop-color="#e72728"/><stop offset="1" stop-color="#931618"/></radialGradient></defs><title>Fichier 25</title><g id="Calque_2" data-name="Calque 2"><g id="Modale_déco_Catalogue" data-name="Modale déco Catalogue"><path class="cls-1" d="M1.69,26.24c1.75-4.55,1.85-4.11-1.14-6.17,4-1.37,1.43-4.16.24-6.17.38-.32,1.52.31,2.38.13,3.81-2.26,1.4-3.88,1.3-4.58.72-.35,1.82,1.57,2.67.79A2.78,2.78,0,0,0,8,8.11c.09-.57,1.62.3,2.45-.6s2.77,2.1,3.94.85,2.17,2.66,2.88,3.43-.47.47-.13,1.05,1.11.33,1,.87c0,.11-2.26.31-2.28,1s-.66,2.57.19,3.15c-2.37.36-2.63.24-3.81,2-.25.42.14,1.42.12,2.05-.62-.31-1.56-1-2.15-.88-1.81.53-2,1.8-2,2.89A5,5,0,0,0,1.69,26.24Z"/><path class="cls-2" d="M1.66,26.3a7.46,7.46,0,0,1,.29-1l.32-.88a8.32,8.32,0,0,0,.48-1.77A1.44,1.44,0,0,0,2,21.3c-.49-.35-1-.69-1.55-1L0,20l.47-.21A3.79,3.79,0,0,0,2,18.87,1.55,1.55,0,0,0,2.2,17.4a7.25,7.25,0,0,0-.8-1.6,8,8,0,0,1-.92-1.71l-.12-.36.19-.1a.9.9,0,0,1,.85,0l.59.22a2.32,2.32,0,0,0,1.16.1h0c.19-.14.39-.27.57-.41l.51-.48A3,3,0,0,0,4.87,12a1.56,1.56,0,0,0-.1-1.1,5.15,5.15,0,0,0-.28-.59,2.36,2.36,0,0,1-.29-.78l0-.23.19-.06a1,1,0,0,1,1,.3A7.54,7.54,0,0,0,6,10a1.23,1.23,0,0,0,.69.29c.25,0,.37-.19.52-.42A2.71,2.71,0,0,0,7.5,8.52a4.07,4.07,0,0,1,.07-.42.6.6,0,0,1,.25-.39.58.58,0,0,1,.37-.1c.36,0,.58.17.85.2a1.1,1.1,0,0,0,.76-.1,2,2,0,0,0,.28-.21,1.51,1.51,0,0,1,.33-.27.9.9,0,0,1,.92.18c.23.17.45.33.68.48a4.22,4.22,0,0,0,1.43.73.89.89,0,0,0,.76-.16c.2-.16.42-.42.71-.34.54.17.79.74,1.06,1.19s.46,1,.69,1.48c.12.25.23.5.37.73s.4.4.43.68-.19.19-.3.26a.23.23,0,0,0-.08.35.89.89,0,0,0,.65.43.78.78,0,0,1,.4.19.37.37,0,0,1,.07.24s0,0,0,.08a.22.22,0,0,1-.1.08l-.1,0c-.27.09-.53.14-.79.22a4.78,4.78,0,0,0-.76.23c-.24.09-.47.23-.46.4-.06.58-.21,1.08-.26,1.62a1.54,1.54,0,0,0,.36,1.41l.18.14-.22,0c-.55.08-1.1.15-1.63.25a2.25,2.25,0,0,0-1.34.77c-.16.2-.31.43-.46.66l-.2.34a.68.68,0,0,0,0,.27c0,.49.24,1,.27,1.65l0,.53-.51-.24a9.8,9.8,0,0,1-1-.6,2,2,0,0,0-1-.38h0a2.3,2.3,0,0,0-1.45,1,2.57,2.57,0,0,0-.3.83,5.84,5.84,0,0,0,0,.93v.57L8,24.22a4.56,4.56,0,0,0-3.33-.06A5.41,5.41,0,0,0,3.07,25,12.59,12.59,0,0,0,1.66,26.3Zm.06-.13a3.29,3.29,0,0,1,.94-1.63A5.25,5.25,0,0,1,4.3,23.36a4.63,4.63,0,0,1,2-.41,4.62,4.62,0,0,1,2,.57l-.57.32a8.92,8.92,0,0,1,.29-1,3.1,3.1,0,0,1,.42-.95,2.67,2.67,0,0,1,.75-.71,4.53,4.53,0,0,1,.92-.43h0a2.83,2.83,0,0,1,1.27.27,10.47,10.47,0,0,1,1.06.52l-.48.29c0-.46-.17-1-.14-1.62A1,1,0,0,1,12,19.7l.26-.34a6.86,6.86,0,0,1,.57-.64A2.64,2.64,0,0,1,14.37,18c.55-.11,1.09-.17,1.64-.25l0,.17a1.73,1.73,0,0,1-.49-1.59c0-.55.16-1.11.2-1.61a.6.6,0,0,1,.25-.45,1.75,1.75,0,0,1,.4-.22,5.7,5.7,0,0,1,.8-.25l.81-.13H18s0,0,0,0,0,0,0,0a.25.25,0,0,0,0-.15c0-.09-.18-.15-.3-.2a1.17,1.17,0,0,1-.63-.5.23.23,0,0,1,.08-.35c.1-.07.27-.11.29-.26s-.3-.43-.42-.68a7.09,7.09,0,0,1-.38-.72c-.23-.49-.45-1-.7-1.48s-.52-1-1-1.18c-.28-.06-.48.17-.69.34a.91.91,0,0,1-.78.18A4.48,4.48,0,0,1,12,7.92a2.12,2.12,0,0,0-.72-.36c-.25-.08-.53-.08-.63,0a3.15,3.15,0,0,1-.29.26A1.28,1.28,0,0,1,9.89,8c-.3,0-.58,0-.86.06a2.74,2.74,0,0,0-.77.13s0,.05,0,0,0,0,.06,0,0,0,0,0,0,.24,0,.38a2.73,2.73,0,0,1-.23.89,2.51,2.51,0,0,1-.6.72,1.14,1.14,0,0,1-.86.34,2.11,2.11,0,0,1-.79-.36,5.55,5.55,0,0,0-.7-.41c-.23-.12-.49-.15-.55-.07l.15-.29c0,.09.23.28.37.47a3.13,3.13,0,0,1,.4.67,2,2,0,0,1,0,1.66,3.53,3.53,0,0,1-1,1.16c-.41.28-.83.52-1.25.76h0a4.34,4.34,0,0,1-1.25-.06,3.06,3.06,0,0,0-.6,0c-.19,0-.38.1-.32.13l.08-.46a8.32,8.32,0,0,1,1.16,1.56,5.88,5.88,0,0,1,.82,1.91,2.28,2.28,0,0,1-.6,2.15,4.92,4.92,0,0,1-1.84,1l.06-.46c.49.38,1,.72,1.51,1.13a2.65,2.65,0,0,1,.68.73,1.47,1.47,0,0,1,.16,1,8.71,8.71,0,0,1-.58,1.81l-.36.87A6.2,6.2,0,0,1,1.72,26.17Z"/><path class="cls-3" d="M11.87,10.5l-.4-.07a3.59,3.59,0,0,0-.47,0,3.71,3.71,0,0,0-.47,0,2.2,2.2,0,0,0-.44.12,2.26,2.26,0,0,1,.45,0,2,2,0,0,1,.43.08,2.58,2.58,0,0,1,.42.13l.15.06c-.25.25-.5.5-.74.76l-.49.53-.3,0a2,2,0,0,0-.35,0,2.14,2.14,0,0,0-.35.06L9,12.24a1.88,1.88,0,0,1,.33-.05h.34a1.64,1.64,0,0,1,.32.05l.17,0c-.7.78-1.35,1.59-2,2.43a2.09,2.09,0,0,0-.79.07,6.48,6.48,0,0,0-.78.26,11.76,11.76,0,0,0-1.47.72,12.29,12.29,0,0,1,1.5-.64,6.39,6.39,0,0,1,.78-.22,2.4,2.4,0,0,1,.65,0l-.21.3c-.44.63-.87,1.26-1.28,1.91a1.86,1.86,0,0,0-.41,0,1.08,1.08,0,0,0-.53.15,1.36,1.36,0,0,1,.53-.11,2.31,2.31,0,0,1,.37,0c-.33.52-.65,1.06-1,1.6l-.18,0-.21.1L5,19l-.17.15L5,19.06l.2-.1.21-.08.1,0a48.16,48.16,0,0,0-2.17,4.38h0a47.61,47.61,0,0,1,2.95-5.08c.16.3.32.6.47.91s.17.36.24.55a47181542057607,47181542057607,0,0,0,.1.28.74.74,0,0,1,0,.14.76.76,0,0,1,0,.15.75.75,0,0,0,0-.15.83.83,0,0,0,0-.15,1,1,0,0,0,0-.14.58.58,0,0,0,0-.14,5.42,5.42,0,0,0-.22-.56c-.14-.33-.3-.65-.46-1,.46-.67.93-1.33,1.42-2l.34.51c.13.21.25.43.36.65a5.2,5.2,0,0,1,.27.69,1.5,1.5,0,0,1,0,.73,1.43,1.43,0,0,0,0-.74,4.32,4.32,0,0,0-.23-.72c-.1-.23-.21-.45-.33-.68S8,16.16,7.89,16c.12-.17.25-.33.38-.49.44-.56.91-1.11,1.39-1.64l.55.72.59.82c.38.55.77,1.11,1.12,1.68-.3-.6-.64-1.19-1-1.77-.17-.3-.34-.59-.52-.88s-.34-.55-.53-.83c.46-.49.94-1,1.42-1.44.23.18.45.38.66.58s.45.43.66.66a5,5,0,0,1,.57.73,1.62,1.62,0,0,1,.22.41.7.7,0,0,1,0,.45.76.76,0,0,0,0-.47,2.39,2.39,0,0,0-.18-.44,7.25,7.25,0,0,0-.51-.8c-.19-.26-.39-.5-.6-.74s-.38-.43-.59-.64a38.23,38.23,0,0,1,4.05-3.15s-.52-.76-.92-.61A21.11,21.11,0,0,0,11.87,10.5Z"/><path class="cls-4" d="M21,7.48A7.49,7.49,0,1,1,13.46,0,7.49,7.49,0,0,1,21,7.48Z"/></g></g></svg>