<svg xmlns="http://www.w3.org/2000/svg" xmlns:xlink="http://www.w3.org/1999/xlink" viewBox="0 0 1396.08 1256.66"><defs><style>.cls-1,.cls-3,.cls-4{fill:none;}.cls-2{clip-path:url(#clip-path);}.cls-3{stroke:#226f54;}.cls-3,.cls-4{stroke-miterlimit:10;stroke-width:10px;}.cls-4{stroke:#bf0603;}</style><clipPath id="clip-path" transform="translate(378.38 288.15)"><path class="cls-1" d="M625,0H77.59L60.9,15.91H610.61V368.09H26.39V48.81L0,74V372a12,12,0,0,0,12,12H625a12,12,0,0,0,12-12V12A12,12,0,0,0,625,0Z"/></clipPath></defs><title>Fichier 41</title><g id="Calque_2" data-name="Calque 2"><g id="Letter-Modale"><g class="cls-2"><line class="cls-3" x1="2.74" y1="566.19" x2="862.47" y2="4.19"/><line class="cls-4" x1="18.82" y1="586.99" x2="878.56" y2="24.98"/><line class="cls-3" x1="34.91" y1="607.79" x2="894.65" y2="45.78"/><line class="cls-4" x1="51" y1="628.58" x2="910.73" y2="66.57"/><line class="cls-3" x1="67.08" y1="649.38" x2="926.82" y2="87.37"/><line class="cls-4" x1="83.17" y1="670.18" x2="942.91" y2="108.17"/><line class="cls-3" x1="99.26" y1="690.97" x2="958.99" y2="128.96"/><line class="cls-4" x1="115.34" y1="711.77" x2="975.08" y2="149.76"/><line class="cls-3" x1="131.43" y1="732.57" x2="991.17" y2="170.56"/><line class="cls-4" x1="147.52" y1="753.36" x2="1007.25" y2="191.35"/><line class="cls-3" x1="163.6" y1="774.16" x2="1023.34" y2="212.15"/><line class="cls-4" x1="179.69" y1="794.95" x2="1039.43" y2="232.94"/><line class="cls-3" x1="195.78" y1="815.75" x2="1055.52" y2="253.74"/><line class="cls-4" x1="211.86" y1="836.55" x2="1071.6" y2="274.54"/><line class="cls-3" x1="227.95" y1="857.34" x2="1087.69" y2="295.33"/><line class="cls-4" x1="244.04" y1="878.14" x2="1103.77" y2="316.13"/><line class="cls-3" x1="260.13" y1="898.93" x2="1119.86" y2="336.92"/><line class="cls-4" x1="276.21" y1="919.73" x2="1135.95" y2="357.72"/><line class="cls-3" x1="292.3" y1="940.53" x2="1152.04" y2="378.52"/><line class="cls-4" x1="308.39" y1="961.32" x2="1168.12" y2="399.31"/><line class="cls-3" x1="324.47" y1="982.12" x2="1184.21" y2="420.11"/><line class="cls-4" x1="340.56" y1="1002.92" x2="1200.3" y2="440.91"/><line class="cls-3" x1="356.65" y1="1023.71" x2="1216.38" y2="461.7"/><line class="cls-4" x1="372.73" y1="1044.51" x2="1232.47" y2="482.5"/><line class="cls-3" x1="388.82" y1="1065.3" x2="1248.56" y2="503.29"/><line class="cls-4" x1="404.91" y1="1086.1" x2="1264.64" y2="524.09"/><line class="cls-3" x1="420.99" y1="1106.9" x2="1280.73" y2="544.89"/><line class="cls-4" x1="437.08" y1="1127.69" x2="1296.82" y2="565.68"/><line class="cls-3" x1="453.17" y1="1148.49" x2="1312.9" y2="586.48"/><line class="cls-4" x1="469.26" y1="1169.29" x2="1328.99" y2="607.28"/><line class="cls-3" x1="485.34" y1="1190.08" x2="1345.08" y2="628.07"/><line class="cls-4" x1="501.43" y1="1210.88" x2="1361.17" y2="648.87"/><line class="cls-3" x1="517.52" y1="1231.67" x2="1377.25" y2="669.66"/><line class="cls-4" x1="533.6" y1="1252.47" x2="1393.34" y2="690.46"/></g></g></g></svg>