<?xml version="1.0" encoding="utf-8"?>
<!-- Generator: Adobe Illustrator 16.0.3, SVG Export Plug-In . SVG Version: 6.00 Build 0)  -->
<!DOCTYPE svg PUBLIC "-//W3C//DTD SVG 1.1//EN" "http://www.w3.org/Graphics/SVG/1.1/DTD/svg11.dtd">
<svg version="1.1" xmlns="http://www.w3.org/2000/svg" xmlns:xlink="http://www.w3.org/1999/xlink" x="0px" y="0px"
	 width="81.666px" height="89.944px" viewBox="0 0 81.666 89.944" enable-background="new 0 0 81.666 89.944" xml:space="preserve">
<g id="Background">
</g>
<g id="Test_bouton">
</g>
<g id="Calque_1" display="none">
</g>
<g id="Bienvenue">
</g>
<g id="Menu_Bienvenue">
</g>
<g id="Modale">
</g>
<g id="_x31_.12">
</g>
<g id="Modale_1.12">
</g>
<g id="Sapin_Catalogue">
</g>
<g id="Lutin_Catalogue">
</g>
<g id="Lettre_Recette">
</g>
<g id="Recette">
</g>
<g id="logo" display="none">
</g>
<g id="Gâteau_Recette">
</g>
<g id="Sucre_glace_Recette_1_" display="none">
</g>
<g id="Sucre_glace_Recette">
</g>
<g id="Calque_25" display="none">
</g>
<g id="Lutin_Recette">
</g>
<g id="Recette_Menu" display="none">
</g>
<g id="Modale_Recette_1_" display="none">
</g>
<g id="Modale_Recette_déco">
</g>
<g id="Calque_29" display="none">
</g>
<g id="Calque_30" display="none">
</g>
<g id="Modale_Recette" display="none">
</g>
<g id="Boîte_lettre">
</g>
<g id="_x32_4">
</g>
<g id="Modale_24">
</g>
<g id="Menu">
</g>
<g id="Calque_5" display="none">
</g>
<g id="Calque_6" display="none">
</g>
<g id="Calque_7" display="none">
</g>
<g id="Calque_8" display="none">
</g>
<g id="neige" display="none">
</g>
<g id="Header">
</g>
<g id="Export">
	<g>
		<rect x="-514.323" y="-753.674" display="none" opacity="0.3" fill="#1D1D1B" width="1280" height="803"/>
	</g>
	<g>
		<path fill="#98592A" stroke="#43291F" stroke-width="1.57" stroke-miterlimit="10" d="M42.914,29.67"/>
		<path fill="#98592A" stroke="#43291F" stroke-width="1.57" stroke-miterlimit="10" d="M41.849,29.939"/>
		<path fill="#703F1E" d="M47.076,54.131c0,0,4.239-2.237,8.73-7.08c5.36,3.902,11.267,7.471,15.793,8.309
			c0,0-2.438,5.391-6.847,11.777C55.76,65.616,47.076,54.131,47.076,54.131z"/>
		<path fill="#703F1E" d="M29.34,38.711c7.101-1.432,12.455-3.283,12.455-3.283s4.102,3.895,9.595,8.259
			c-5.676,6.819-12.771,6.562-12.771,6.562C34.046,49.386,30.385,41.272,29.34,38.711z"/>
		<path fill="#703F1E" d="M5.961,39.4c5.289,1.361,11.718,1.117,17.667,0.29c0.672,4.683,4.94,9.708,4.94,9.708
			S17.414,55.079,7.23,53.178C5.979,45.407,5.961,39.4,5.961,39.4z"/>
		<path fill="#43291F" d="M36.312,2.532c14.245-1.99,22.753,4.349,24.437,5.747c-0.128,1.203-0.797,3.816-3.774,6.973
			c-5.966,6.336-11.641,7.767-12.777,7.996c-0.914-0.734-5.283-4.617-7.671-12.968C35.39,6.318,35.884,3.742,36.312,2.532z"/>
		<path fill="#A26D48" d="M29.063,87.794c-0.165-0.041-0.334-0.083-0.496-0.128c0,0-0.009,0.006-0.014-0.002
			c-2.867-1.315-7.5-9.516-7.5-9.516s6.51-1.003,11.403-4.093c0.452-0.289,5.612,7.257,8.61,8.967c0,0-8.97,4.79-11.765,4.823
			L29.063,87.794z"/>
		<path fill="#98592A" d="M25.641,55.804c2.636-0.415,6.755-3.002,6.755-3.002c4.412,4.877,10.471,2.546,10.471,2.546
			c1.145,2.694,4.12,5.648,4.12,5.648s-8.735,6.883-12.953,6.781C31.618,67.717,25.641,55.804,25.641,55.804z"/>
		<path fill="#98592A" d="M8.097,57.793c3.314,1.356,12.45-0.581,12.45-0.581s3.503,8.558,7.272,12.621
			c0,0-9.572,4.213-14.736,2.866C10.726,67.98,9.152,62.718,8.097,57.793z"/>
		<path fill="#98592A" d="M38.119,71.834c5.22-1.057,12.85-7.223,12.85-7.223s6.885,6.347,10.569,6.465
			c-3.089,3.946-6.532,7.951-10.843,11.033C45.994,82.165,38.119,71.834,38.119,71.834z"/>
		<path fill="#563013" d="M45.041,30.628c16.96-5.016,21.711-18.738,21.717-18.735c16.082,13.96,13.782,35.1,11.132,38.965
			C75.506,54.314,49.337,34.004,45.041,30.628z"/>
		<path fill="#563013" d="M40.333,29.486C27.571,17.239,29.653,2.868,29.644,2.868C8.95,7.883,1.288,27.721,1.866,32.369
			C2.396,36.537,34.97,30.508,40.333,29.486z"/>
		<path fill="#563013" stroke="#43291F" stroke-width="1.57" stroke-miterlimit="10" d="M60.884,11.217"/>
		<path fill="#563013" stroke="#43291F" stroke-width="1.57" stroke-miterlimit="10" d="M60.576,10.949"/>
	</g>
</g>
<g id="Header-déco">
</g>
<g id="elem_graph">
</g>
<g id="curseur">
</g>
<g id="bouton_anim" display="none">
</g>
<g id="Repère" display="none">
</g>
</svg>
