<?xml version="1.0" encoding="utf-8"?>
<!-- Generator: Adobe Illustrator 16.0.3, SVG Export Plug-In . SVG Version: 6.00 Build 0)  -->
<!DOCTYPE svg PUBLIC "-//W3C//DTD SVG 1.1//EN" "http://www.w3.org/Graphics/SVG/1.1/DTD/svg11.dtd">
<svg version="1.1" xmlns="http://www.w3.org/2000/svg" xmlns:xlink="http://www.w3.org/1999/xlink" x="0px" y="0px" width="181px"
	 height="221.5px" viewBox="0 0 181 221.5" enable-background="new 0 0 181 221.5" xml:space="preserve">
<g id="Calque_1">
</g>
<g id="Calque_2">
</g>
<g id="Calque_3">
	<g>
		<path fill="#FFFFFF" stroke="#000000" stroke-width="3" stroke-miterlimit="10" d="M3.23,190.797l25.104-30.825
			c0.58-0.713,0.072-1.781-0.848-1.781H16.34c-0.899,0-1.412-1.025-0.873-1.746l36.953-49.336l0.074-0.099
			c0.539-0.719,0.025-1.747-0.875-1.747H36.146c-0.918,0-1.427-1.063-0.85-1.777l26.975-33.408c0.575-0.715,0.066-1.778-0.852-1.778
			H49.119c-0.923,0-1.43-1.073-0.844-1.785l20.471-24.86l0.728-0.883c0.586-0.711,0.079-1.785-0.845-1.785h-4.86
			c-0.927,0-1.433-1.08-0.839-1.791l13.134-15.74L89.849,4.927c0.437-0.523,1.241-0.523,1.677,0l13.785,16.527l13.129,15.74
			c0.594,0.711,0.088,1.791-0.838,1.791h-4.855c-0.924,0-1.431,1.074-0.845,1.785l0.728,0.883l20.47,24.86
			c0.587,0.712,0.08,1.785-0.843,1.785h-12.309c-0.918,0-1.426,1.063-0.85,1.778l26.98,33.408c0.576,0.715,0.068,1.777-0.85,1.777
			H129.75c-0.9,0-1.414,1.028-0.875,1.747l0.074,0.099l36.952,49.336c0.54,0.721,0.026,1.746-0.874,1.746h-11.139
			c-0.92,0-1.428,1.068-0.848,1.781l25.104,30.825c0.581,0.713,0.072,1.781-0.848,1.781H4.078
			C3.158,192.578,2.649,191.51,3.23,190.797"/>
		<path fill="#FFFFFF" stroke="#000000" stroke-width="3" stroke-miterlimit="10" d="M84.213,211.984v-13.267
			c0-1.373,1.112-2.483,2.483-2.483h7.979c1.371,0,2.482,1.11,2.482,2.483v13.267c0,1.371-1.111,2.481-2.482,2.481h-7.979
			C85.325,214.466,84.213,213.355,84.213,211.984"/>
	</g>
</g>
</svg>
