<?xml version="1.0" encoding="utf-8"?>
<!-- Generator: Adobe Illustrator 16.0.3, SVG Export Plug-In . SVG Version: 6.00 Build 0)  -->
<!DOCTYPE svg PUBLIC "-//W3C//DTD SVG 1.1//EN" "http://www.w3.org/Graphics/SVG/1.1/DTD/svg11.dtd">
<svg version="1.1" xmlns="http://www.w3.org/2000/svg" xmlns:xlink="http://www.w3.org/1999/xlink" x="0px" y="0px"
	 width="182.666px" height="218.666px" viewBox="0 0 182.666 218.666" enable-background="new 0 0 182.666 218.666"
	 xml:space="preserve">
<g id="Calque_1">
</g>
<g id="Calque_2">
</g>
<g id="Calque_3">
	<g>
		<path fill="#18592D" d="M3.896,190.63L29,159.805c0.58-0.713,0.072-1.781-0.848-1.781H17.006c-0.899,0-1.412-1.025-0.873-1.746
			l36.953-49.336l0.074-0.099c0.539-0.719,0.025-1.747-0.875-1.747H36.813c-0.918,0-1.427-1.063-0.85-1.777L62.938,69.91
			c0.575-0.715,0.066-1.778-0.852-1.778H49.785c-0.923,0-1.43-1.073-0.844-1.785l20.471-24.86l0.728-0.883
			c0.586-0.711,0.079-1.785-0.845-1.785h-4.86c-0.927,0-1.433-1.08-0.839-1.791l13.134-15.74L90.515,4.76
			c0.437-0.523,1.241-0.523,1.677,0l13.785,16.527l13.129,15.74c0.594,0.711,0.088,1.791-0.838,1.791h-4.855
			c-0.924,0-1.431,1.074-0.845,1.785l0.728,0.883l20.47,24.86c0.587,0.712,0.08,1.785-0.843,1.785h-12.309
			c-0.918,0-1.426,1.063-0.85,1.778l26.98,33.408c0.576,0.715,0.068,1.777-0.85,1.777h-15.479c-0.9,0-1.414,1.028-0.875,1.747
			l0.074,0.099l36.952,49.336c0.54,0.721,0.026,1.746-0.874,1.746h-11.139c-0.92,0-1.428,1.068-0.848,1.781l25.104,30.825
			c0.581,0.713,0.072,1.781-0.848,1.781H4.744C3.824,192.411,3.315,191.343,3.896,190.63"/>
		<path fill="#18592D" d="M84.879,211.817v-13.267c0-1.373,1.112-2.483,2.483-2.483h7.979c1.371,0,2.482,1.11,2.482,2.483v13.267
			c0,1.371-1.111,2.481-2.482,2.481h-7.979C85.991,214.299,84.879,213.188,84.879,211.817"/>
	</g>
</g>
</svg>
