<?xml version="1.0" encoding="utf-8"?>
<!-- Generator: Adobe Illustrator 16.0.3, SVG Export Plug-In . SVG Version: 6.00 Build 0)  -->
<!DOCTYPE svg PUBLIC "-//W3C//DTD SVG 1.1//EN" "http://www.w3.org/Graphics/SVG/1.1/DTD/svg11.dtd">
<svg version="1.1" xmlns="http://www.w3.org/2000/svg" xmlns:xlink="http://www.w3.org/1999/xlink" x="0px" y="0px"
	 width="38.782px" height="45.172px" viewBox="0 0 38.782 45.172" enable-background="new 0 0 38.782 45.172" xml:space="preserve">
<g id="Background">
</g>
<g id="Test_bouton">
</g>
<g id="Calque_1" display="none">
</g>
<g id="Bienvenue">
</g>
<g id="Menu_Bienvenue">
</g>
<g id="Modale">
</g>
<g id="_x31_.12">
</g>
<g id="Modale_1.12">
</g>
<g id="Sapin_Catalogue">
</g>
<g id="Lutin_Catalogue">
</g>
<g id="Lettre_Recette">
</g>
<g id="Recette">
</g>
<g id="logo" display="none">
</g>
<g id="Gâteau_Recette">
</g>
<g id="Sucre_glace_Recette_1_" display="none">
</g>
<g id="Sucre_glace_Recette">
</g>
<g id="Calque_25" display="none">
</g>
<g id="Lutin_Recette">
</g>
<g id="Recette_Menu" display="none">
</g>
<g id="Modale_Recette_1_" display="none">
</g>
<g id="Modale_Recette_déco">
</g>
<g id="Calque_29" display="none">
</g>
<g id="Calque_30" display="none">
</g>
<g id="Modale_Recette" display="none">
</g>
<g id="Boîte_lettre">
</g>
<g id="_x32_4">
</g>
<g id="Modale_24">
</g>
<g id="Menu">
</g>
<g id="Calque_5" display="none">
</g>
<g id="Calque_6" display="none">
</g>
<g id="Calque_7" display="none">
</g>
<g id="Calque_8" display="none">
</g>
<g id="neige" display="none">
</g>
<g id="Header">
</g>
<g id="Export">
	<g>
		<rect x="-661.207" y="-760.519" display="none" opacity="0.3" fill="#1D1D1B" width="1280" height="803"/>
	</g>
	<g>
		<path fill="none" stroke="#801717" stroke-width="2" stroke-miterlimit="10" d="M18.757,16.166c0,0-14.707-5.124-8.214-11.569
			c7.546-7.489,9.5,9.942,9.5,10.623"/>
		<path fill="none" stroke="#801717" stroke-width="2" stroke-miterlimit="10" d="M21.382,16.166c0,0,14.661-5.124,8.164-11.569
			c-7.547-7.489-9.367,9.942-9.367,10.623"/>
		<path fill="none" stroke="#1D1D1B" stroke-width="4.4403" stroke-miterlimit="10" d="M20.179,15.22"/>
		<rect x="2.854" y="15.22" fill="#009145" width="16.35" height="10.621"/>
		<rect x="6.01" y="27.21" fill="#009145" width="13.194" height="16.192"/>
		<rect x="20.996" y="27.21" fill="#009145" width="13.195" height="16.192"/>
		<rect x="20.996" y="15.22" fill="#009145" width="16.221" height="10.621"/>
		<path fill="#FFFFFF" d="M17.774,26.205l-3.691,5.499c-0.173,0.258,0.014,0.605,0.323,0.604l1.422-0.008l0.461,1.144
			c0.118,0.288,0.509,0.329,0.68,0.069l3.633-5.411L17.774,26.205z"/>
		<path fill="#FFFFFF" d="M22.418,26.205l3.688,5.499c0.173,0.258-0.013,0.605-0.321,0.604L24.363,32.3L23.9,33.443
			c-0.118,0.288-0.509,0.329-0.682,0.069l-3.631-5.411L22.418,26.205z"/>
	</g>
</g>
<g id="Header-déco">
</g>
<g id="elem_graph">
</g>
<g id="curseur">
</g>
<g id="bouton_anim" display="none">
</g>
<g id="Repère" display="none">
</g>
</svg>
