<?xml version="1.0" encoding="utf-8"?>
<!-- Generator: Adobe Illustrator 16.0.3, SVG Export Plug-In . SVG Version: 6.00 Build 0)  -->
<!DOCTYPE svg PUBLIC "-//W3C//DTD SVG 1.1//EN" "http://www.w3.org/Graphics/SVG/1.1/DTD/svg11.dtd">
<svg version="1.1" xmlns="http://www.w3.org/2000/svg" xmlns:xlink="http://www.w3.org/1999/xlink" x="0px" y="0px"
	 width="36.334px" height="89.015px" viewBox="0 0 36.334 89.015" enable-background="new 0 0 36.334 89.015" xml:space="preserve">
<g id="Background">
</g>
<g id="Test_bouton">
</g>
<g id="Calque_1" display="none">
</g>
<g id="Bienvenue">
</g>
<g id="Menu_Bienvenue">
</g>
<g id="Modale">
</g>
<g id="_x31_.12">
</g>
<g id="Modale_1.12">
</g>
<g id="Sapin_Catalogue">
</g>
<g id="Lutin_Catalogue">
</g>
<g id="Lettre_Recette">
</g>
<g id="Recette">
</g>
<g id="logo" display="none">
</g>
<g id="Gâteau_Recette">
</g>
<g id="Sucre_glace_Recette_1_" display="none">
</g>
<g id="Sucre_glace_Recette">
</g>
<g id="Calque_25" display="none">
</g>
<g id="Lutin_Recette">
</g>
<g id="Recette_Menu" display="none">
</g>
<g id="Modale_Recette_1_" display="none">
</g>
<g id="Modale_Recette_déco">
</g>
<g id="Calque_29" display="none">
</g>
<g id="Calque_30" display="none">
</g>
<g id="Modale_Recette" display="none">
</g>
<g id="Boîte_lettre">
</g>
<g id="_x32_4">
</g>
<g id="Modale_24">
</g>
<g id="Menu">
</g>
<g id="Calque_5" display="none">
</g>
<g id="Calque_6" display="none">
</g>
<g id="Calque_7" display="none">
</g>
<g id="Calque_8" display="none">
</g>
<g id="neige" display="none">
</g>
<g id="Header">
</g>
<g id="Export">
	<g>
		<rect x="-799.989" y="-695.21" display="none" opacity="0.3" fill="#1D1D1B" width="1280" height="803"/>
	</g>
	<g>
		<path fill="#FFFFFF" stroke="#801717" stroke-miterlimit="10" d="M26.88,74.205l-0.599,4.458
			c-6.498,6.256-10.822,6.01-10.822,6.01l0.598-4.459C16.057,80.214,20.38,80.459,26.88,74.205z"/>
		<path fill="#FFFFFF" stroke="#801717" stroke-miterlimit="10" d="M28.077,65.309l-0.596,4.432
			c-6.504,6.256-10.828,6.039-10.828,6.039l0.598-4.46C17.251,71.319,21.579,71.563,28.077,65.309z"/>
		<path fill="#FFFFFF" stroke="#801717" stroke-miterlimit="10" d="M29.275,56.417l-0.6,4.434
			c-6.499,6.254-10.824,6.036-10.824,6.036l0.599-4.459C18.45,62.428,22.772,62.646,29.275,56.417z"/>
		<path fill="#FFFFFF" stroke="#801717" stroke-miterlimit="10" d="M30.47,47.497l-0.596,4.459
			c-6.504,6.255-10.827,6.01-10.827,6.01l0.601-4.434C19.647,53.532,23.972,53.751,30.47,47.497z"/>
		<path fill="#FFFFFF" stroke="#801717" stroke-miterlimit="10" d="M31.669,38.602l-0.602,4.463
			c-6.499,6.255-10.796,6.008-10.796,6.008l0.598-4.432C20.869,44.641,25.166,44.858,31.669,38.602z"/>
		<path fill="#FFFFFF" stroke="#801717" stroke-miterlimit="10" d="M32.891,29.71l-0.598,4.432
			C25.767,40.397,21.47,40.18,21.47,40.18l0.598-4.46C22.067,35.72,26.366,35.966,32.891,29.71z"/>
		<path fill="#FFFFFF" stroke="#801717" stroke-miterlimit="10" d="M33.87,20.3c0.026,1.796-0.136,2.99-0.136,3.072l-0.244,1.88
			c-6.501,6.253-10.825,6.035-10.825,6.035l0.6-4.488C23.265,26.799,30.008,24.923,33.87,20.3z"/>
		<path fill="#FFFFFF" stroke="#801717" stroke-miterlimit="10" d="M33.298,14.942c-3.59,5.331-9.436,7.48-9.436,7.48l0.054-0.385
			c0,0,0.408-2.117-0.161-4.348c0,0,3.291-0.572,7.966-7.346C32.483,11.84,32.972,13.417,33.298,14.942z"/>
		<path fill="#FFFFFF" stroke="#801717" stroke-miterlimit="10" d="M28.974,6.565c-2.23,5.058-6.825,7.725-7.042,7.859
			c-0.736-0.708-1.713-1.25-3.046-1.578c0,0,6.391-6.254,6.336-8.783c0.789,0.324,1.494,0.679,2.04,1.059
			C27.887,5.559,28.456,6.048,28.974,6.565z"/>
		<path fill="#FFFFFF" stroke="#801717" stroke-miterlimit="10" d="M19.592,2.675c0.219,3.265-4.896,10.28-4.896,10.28
			c-0.898,0.301-1.577,0.817-2.146,1.416c0,0,2.526-8.239,0.871-11.531C15.485,2.485,17.608,2.458,19.592,2.675z"/>
		<path fill="#FFFFFF" stroke="#801717" stroke-miterlimit="10" d="M10.998,17.2c-0.162,0.542-0.271,1.086-0.354,1.521
			c0,0-2.42-7.724-6.172-10.359c1.115-1.77,2.61-3.047,4.295-3.975C11.215,7.247,11.027,16.845,10.998,17.2z"/>
		<path fill="#FFFFFF" stroke="#801717" stroke-miterlimit="10" d="M10.507,20.353l-0.133,0.871c0,0-0.628,0.217-1.552,0.436
			c-0.109-0.135-4.324-5.412-6.799-4.354l0.435-3.18c0-0.081,0.026-0.191,0.026-0.299C5.802,13.526,10.507,20.353,10.507,20.353z"/>
		<path fill="#DA2B38" stroke="#801717" stroke-miterlimit="10" d="M8.822,21.659c-1.931,0.407-5.221,0.732-7.235-1.198l0.437-3.155
			C4.498,16.247,8.713,21.524,8.822,21.659z"/>
		<path fill="#DA2B38" stroke="#801717" stroke-miterlimit="10" d="M10.507,20.353c0,0-4.705-6.826-8.022-6.525
			c0.354-2.175,1.035-3.998,1.987-5.465c3.752,2.636,6.172,10.359,6.172,10.359C10.481,19.673,10.507,20.353,10.507,20.353z"/>
		<path fill="#DA2B38" stroke="#801717" stroke-miterlimit="10" d="M12.55,14.371c-0.765,0.843-1.253,1.85-1.552,2.829
			c0.029-0.355,0.217-9.953-2.231-12.813c1.441-0.787,3.019-1.277,4.654-1.548C15.076,6.132,12.55,14.371,12.55,14.371z"/>
		<path fill="#DA2B38" stroke="#801717" stroke-miterlimit="10" d="M25.222,4.063c0.055,2.529-6.336,8.783-6.336,8.783
			c-0.273-0.053-0.545-0.108-0.871-0.136c-1.333-0.189-2.42-0.083-3.318,0.244c0,0,5.114-7.016,4.896-10.28
			C21.714,2.922,23.671,3.437,25.222,4.063z"/>
		<path fill="#DA2B38" stroke="#801717" stroke-miterlimit="10" d="M31.721,10.345c-4.675,6.773-7.966,7.346-7.966,7.346
			c-0.303-1.145-0.847-2.341-1.823-3.266c0.217-0.135,4.812-2.802,7.042-7.859C30.144,7.708,31.042,9.012,31.721,10.345z"/>
		<path fill="#DA2B38" stroke="#801717" stroke-miterlimit="10" d="M33.87,20.3c-3.862,4.623-10.605,6.499-10.605,6.499l0.598-4.376
			c0,0,5.846-2.149,9.436-7.48C33.734,16.927,33.87,18.831,33.87,20.3z"/>
		<path fill="#DA2B38" stroke="#801717" stroke-miterlimit="10" d="M33.49,25.252l-0.6,4.458c-6.524,6.256-10.823,6.01-10.823,6.01
			l0.598-4.433C22.665,31.287,26.989,31.505,33.49,25.252z"/>
		<path fill="#DA2B38" stroke="#801717" stroke-miterlimit="10" d="M32.293,34.142l-0.624,4.46c-6.503,6.257-10.8,6.039-10.8,6.039
			l0.601-4.461C21.47,40.18,25.767,40.397,32.293,34.142z"/>
		<path fill="#DA2B38" stroke="#801717" stroke-miterlimit="10" d="M31.067,43.064l-0.598,4.433
			c-6.498,6.254-10.822,6.035-10.822,6.035l0.624-4.46C20.271,49.072,24.568,49.319,31.067,43.064z"/>
		<path fill="#DA2B38" stroke="#801717" stroke-miterlimit="10" d="M29.874,51.956l-0.599,4.461
			c-6.503,6.229-10.825,6.011-10.825,6.011l0.597-4.462C19.047,57.966,23.37,58.211,29.874,51.956z"/>
		<path fill="#DA2B38" stroke="#801717" stroke-miterlimit="10" d="M28.676,60.851l-0.599,4.458
			c-6.498,6.255-10.826,6.011-10.826,6.011l0.601-4.433C17.852,66.887,22.177,67.104,28.676,60.851z"/>
		<path fill="#DA2B38" stroke="#801717" stroke-miterlimit="10" d="M27.481,69.74l-0.602,4.465
			c-6.5,6.254-10.823,6.009-10.823,6.009l0.597-4.435C16.653,75.779,20.978,75.996,27.481,69.74z"/>
		<path fill="#DA2B38" stroke="#801717" stroke-miterlimit="10" d="M26.281,78.663l-1.03,7.697
			c-6.885,3.646-9.846-1.308-9.846-1.308l0.054-0.38C15.459,84.673,19.783,84.919,26.281,78.663z"/>
		<path fill="none" stroke="#801717" stroke-miterlimit="10" d="M33.889,20.292c0,0,0,0.006-0.006,0.006"/>
		<line fill="none" stroke="#801717" stroke-miterlimit="10" x1="19.589" y1="2.688" x2="19.592" y2="2.678"/>
		<line fill="none" stroke="#801717" stroke-miterlimit="10" x1="2.495" y1="13.837" x2="2.489" y2="13.837"/>
	</g>
</g>
<g id="Header-déco">
</g>
<g id="elem_graph">
</g>
<g id="curseur">
</g>
<g id="bouton_anim" display="none">
</g>
<g id="Repère" display="none">
</g>
</svg>
