<?xml version="1.0" encoding="utf-8"?>
<!-- Generator: Adobe Illustrator 16.0.3, SVG Export Plug-In . SVG Version: 6.00 Build 0)  -->
<!DOCTYPE svg PUBLIC "-//W3C//DTD SVG 1.1//EN" "http://www.w3.org/Graphics/SVG/1.1/DTD/svg11.dtd">
<svg version="1.1" xmlns="http://www.w3.org/2000/svg" xmlns:xlink="http://www.w3.org/1999/xlink" x="0px" y="0px"
	 width="39.438px" height="46.052px" viewBox="0 0 39.438 46.052" enable-background="new 0 0 39.438 46.052" xml:space="preserve">
<g id="Background">
</g>
<g id="Test_bouton">
</g>
<g id="Calque_1" display="none">
</g>
<g id="Bienvenue">
</g>
<g id="Menu_Bienvenue">
</g>
<g id="Modale">
</g>
<g id="_x31_.12">
</g>
<g id="Modale_1.12">
</g>
<g id="Sapin_Catalogue">
</g>
<g id="Lutin_Catalogue">
</g>
<g id="Lettre_Recette">
</g>
<g id="Recette">
</g>
<g id="logo" display="none">
</g>
<g id="Gâteau_Recette">
</g>
<g id="Sucre_glace_Recette_1_" display="none">
</g>
<g id="Sucre_glace_Recette">
</g>
<g id="Calque_25" display="none">
</g>
<g id="Lutin_Recette">
</g>
<g id="Recette_Menu" display="none">
</g>
<g id="Modale_Recette_1_" display="none">
</g>
<g id="Modale_Recette_déco">
</g>
<g id="Calque_29" display="none">
</g>
<g id="Calque_30" display="none">
</g>
<g id="Modale_Recette" display="none">
</g>
<g id="Boîte_lettre">
</g>
<g id="_x32_4">
</g>
<g id="Modale_24">
</g>
<g id="Menu">
</g>
<g id="Calque_5" display="none">
</g>
<g id="Calque_6" display="none">
</g>
<g id="Calque_7" display="none">
</g>
<g id="Calque_8" display="none">
</g>
<g id="neige" display="none">
</g>
<g id="Header">
</g>
<g id="Export">
	<g>
		<rect x="-630.656" y="-674.952" display="none" opacity="0.3" fill="#1D1D1B" width="1280" height="803"/>
	</g>
	<g>
		<path fill="none" stroke="#801717" stroke-width="2" stroke-miterlimit="10" d="M18.102,15.894c0,0-14.712-5.125-8.215-11.568
			c7.546-7.487,9.5,9.941,9.5,10.623"/>
		<path fill="none" stroke="#801717" stroke-width="2" stroke-miterlimit="10" d="M20.729,15.894c0,0,14.658-5.125,8.161-11.568
			c-7.549-7.487-9.367,9.941-9.367,10.623"/>
		<path fill="none" stroke="#1D1D1B" stroke-width="4.4403" stroke-miterlimit="10" d="M19.522,14.948"/>
		<rect x="2.197" y="14.948" fill="#217055" width="16.351" height="10.619"/>
		<rect x="5.354" y="26.936" fill="#217055" width="13.194" height="16.194"/>
		<rect x="20.341" y="26.936" fill="#217055" width="13.193" height="16.194"/>
		<rect x="20.341" y="14.948" fill="#217055" width="16.22" height="10.619"/>
		<path fill="#FFFFFF" d="M17.118,25.931l-3.692,5.504c-0.172,0.258,0.014,0.603,0.325,0.603l1.421-0.008l0.462,1.142
			c0.117,0.29,0.506,0.33,0.68,0.072l3.63-5.413L17.118,25.931z"/>
		<path fill="#FFFFFF" d="M21.762,25.931l3.688,5.504c0.172,0.258-0.013,0.603-0.319,0.603l-1.427-0.008l-0.462,1.142
			c-0.115,0.29-0.506,0.33-0.68,0.072L18.93,27.83L21.762,25.931z"/>
	</g>
</g>
<g id="Header-déco">
</g>
<g id="elem_graph">
</g>
<g id="curseur">
</g>
<g id="bouton_anim" display="none">
</g>
<g id="Repère" display="none">
</g>
</svg>
