<?xml version="1.0" encoding="utf-8"?>
<!-- Generator: Adobe Illustrator 16.0.3, SVG Export Plug-In . SVG Version: 6.00 Build 0)  -->
<!DOCTYPE svg PUBLIC "-//W3C//DTD SVG 1.1//EN" "http://www.w3.org/Graphics/SVG/1.1/DTD/svg11.dtd">
<svg version="1.1" xmlns="http://www.w3.org/2000/svg" xmlns:xlink="http://www.w3.org/1999/xlink" x="0px" y="0px" width="237px"
	 height="160px" viewBox="0 0 237 160" enable-background="new 0 0 237 160" xml:space="preserve">
<g id="Calque_1">
</g>
<g id="Calque_2">
	<g>
		<path fill="#7DC493" d="M123.874,126.757c3.919-6.305,26.418-15.408,26.418-15.408s-11.374-12.16-9.983-25.109
			c1.39-12.948,19.368-20.314,19.368-20.314s-16.324-7.438-26.151-20.954c-9.826-13.514-7.974-32.547-7.974-32.547
			S115.1,41.044,109.356,49.29c-5.742,8.246-20.473,13.06-20.473,13.06s14.358,7.004,16.666,21.212
			c2.308,14.209-11.971,22.834-11.971,22.834l6.223,5.367c5.479,4.724,11.526,8.745,18.001,11.97L123.874,126.757z"/>
		<path fill="none" stroke="#227159" stroke-width="3" stroke-miterlimit="10" d="M123.874,126.757
			c3.919-6.305,26.418-15.408,26.418-15.408s-11.374-12.16-9.983-25.109c1.39-12.948,19.368-20.314,19.368-20.314
			s-16.324-7.438-26.151-20.954c-9.826-13.514-7.974-32.547-7.974-32.547S115.1,41.044,109.356,49.29
			c-5.742,8.246-20.473,13.06-20.473,13.06s14.358,7.004,16.666,21.212c2.308,14.209-11.971,22.834-11.971,22.834l6.223,5.367
			c5.479,4.724,11.526,8.745,18.001,11.97L123.874,126.757z"/>
		<line fill="#7DC493" x1="122.193" y1="109.93" x2="122.193" y2="60.106"/>
		<line fill="none" stroke="#227159" stroke-width="3" stroke-miterlimit="10" x1="122.193" y1="109.93" x2="122.193" y2="60.106"/>
		<path fill="#7DC493" d="M105.414,139.581c-3.208-6.694,1.216-30.56,1.216-30.56s-16.368,3.051-26.538-5.084
			c-10.169-8.136-6.712-27.254-6.712-27.254S58.33,86.445,41.65,87.463C24.974,88.479,9.922,76.684,9.922,76.684
			s18.508,24.203,22.372,33.479c3.865,9.275,0,24.283,0,24.283s13.628-8.339,26.848-2.644c13.22,5.694,12.813,22.373,12.813,22.373
			l7.872-2.361c6.928-2.079,13.57-5.015,19.772-8.74L105.414,139.581z"/>
		<path fill="none" stroke="#227159" stroke-width="3" stroke-miterlimit="10" d="M105.414,139.581
			c-3.208-6.694,1.216-30.56,1.216-30.56s-16.368,3.051-26.538-5.084c-10.169-8.136-6.712-27.254-6.712-27.254
			S58.33,86.445,41.65,87.463C24.974,88.479,9.922,76.684,9.922,76.684s18.508,24.203,22.372,33.479c3.865,9.275,0,24.283,0,24.283
			s13.628-8.339,26.848-2.644c13.22,5.694,12.813,22.373,12.813,22.373l7.872-2.361c6.928-2.079,13.57-5.015,19.772-8.74
			L105.414,139.581z"/>
		<path fill="#7DC493" d="M132.149,139.581c3.208-6.694-1.216-30.56-1.216-30.56s16.368,3.051,26.538-5.084
			c10.169-8.136,6.712-27.254,6.712-27.254s15.05,9.762,31.729,10.779c16.677,1.017,31.728-10.779,31.728-10.779
			s-18.508,24.203-22.372,33.479c-3.865,9.275,0,24.283,0,24.283s-13.628-8.339-26.848-2.644
			c-13.22,5.694-12.813,22.373-12.813,22.373l-7.872-2.361c-6.928-2.079-13.571-5.015-19.772-8.74L132.149,139.581z"/>
		<path fill="none" stroke="#227159" stroke-width="3" stroke-miterlimit="10" d="M132.149,139.581
			c3.208-6.694-1.216-30.56-1.216-30.56s16.368,3.051,26.538-5.084c10.169-8.136,6.712-27.254,6.712-27.254
			s15.05,9.762,31.729,10.779c16.677,1.017,31.728-10.779,31.728-10.779s-18.508,24.203-22.372,33.479
			c-3.865,9.275,0,24.283,0,24.283s-13.628-8.339-26.848-2.644c-13.22,5.694-12.813,22.373-12.813,22.373l-7.872-2.361
			c-6.928-2.079-13.571-5.015-19.772-8.74L132.149,139.581z"/>
		<path fill="#C02026" d="M117.625,143.179c0-6.073-4.923-10.996-10.996-10.996c-6.072,0-10.995,4.923-10.995,10.996
			c0,6.072,4.923,10.996,10.995,10.996C112.703,154.175,117.625,149.251,117.625,143.179"/>
		<circle fill="none" stroke="#7B131B" stroke-width="1.638" stroke-miterlimit="10" cx="106.63" cy="143.179" r="10.996"/>
		<path fill="#C02026" d="M143.894,144.075c0-7.537-6.11-13.646-13.647-13.646s-13.647,6.108-13.647,13.646
			s6.11,13.647,13.647,13.647S143.894,151.612,143.894,144.075"/>
		<circle fill="none" stroke="#7B131B" stroke-width="2.033" stroke-miterlimit="10" cx="130.247" cy="144.075" r="13.647"/>
		<path fill="#C02026" d="M131.632,123.937c0-7.736-6.271-14.007-14.007-14.007c-7.736,0-14.007,6.271-14.007,14.007
			c0,7.735,6.271,14.006,14.007,14.006C125.361,137.942,131.632,131.672,131.632,123.937"/>
		<circle fill="none" stroke="#7B131B" stroke-width="2.087" stroke-miterlimit="10" cx="117.625" cy="123.937" r="14.007"/>
		<path fill="#7DC493" d="M147.516,130.429c0,0,29.898-9.915,48.508-29.44"/>
		<path fill="none" stroke="#227159" stroke-width="3" stroke-miterlimit="10" d="M147.516,130.429c0,0,29.898-9.915,48.508-29.44"
			/>
		<path fill="#7DC493" d="M92.008,130.429c0,0-29.898-9.915-48.509-29.44"/>
		<path fill="none" stroke="#227159" stroke-width="3" stroke-miterlimit="10" d="M92.008,130.429c0,0-29.898-9.915-48.509-29.44"/>
	</g>
</g>
<g id="Calque_3">
</g>
</svg>
