<svg xmlns="http://www.w3.org/2000/svg" xmlns:xlink="http://www.w3.org/1999/xlink" viewBox="0 0 70.69 50.43"><defs><style>.cls-1{fill:url(#Dégradé_sans_nom_60);}.cls-2{fill:#e4e6bc;}.cls-3{fill:url(#Dégradé_sans_nom_60-2);}</style><linearGradient id="Dégradé_sans_nom_60" x1="37.72" y1="13.55" x2="45.52" y2="25.38" gradientUnits="userSpaceOnUse"><stop offset="0" stop-color="#414236"/><stop offset="1" stop-color="#e4e6bc"/></linearGradient><linearGradient id="Dégradé_sans_nom_60-2" x1="21.58" y1="38.89" x2="28.5" y2="49.39" xlink:href="#Dégradé_sans_nom_60"/></defs><title>Fichier 43</title><g id="Calque_2" data-name="Calque 2"><g id="Lutin_Lettre" data-name="Lutin Lettre"><path class="cls-1" d="M15.12,28.82l2,15.26,7.63-9.86L69.69.32S36.39,14.49,33.28,16.48,15.12,28.82,15.12,28.82Z"/><path class="cls-2" d="M0,18.78l15.12,10s22.63-15.2,27.71-16.47S63.88,1.81,69.91.54,45.13,2.76,38.45,4.67,6.36,15.09,0,18.78Z"/><path class="cls-2" d="M24.79,34.22,40.36,50.43S66.1,5.62,69.91.54,28.28,27.87,24.79,34.22Z"/><polygon class="cls-3" points="17.16 44.08 29.74 39.38 24.79 34.22 17.16 44.08"/></g></g></svg>