<?xml version="1.0" standalone="no"?>
<!DOCTYPE svg PUBLIC "-//W3C//DTD SVG 20010904//EN"
 "http://www.w3.org/TR/2001/REC-SVG-20010904/DTD/svg10.dtd">
<svg version="1.0" xmlns="http://www.w3.org/2000/svg"
 width="1194.000000pt" height="1280.000000pt" viewBox="0 0 1194.000000 1280.000000"
 preserveAspectRatio="xMidYMid meet">
<g transform="translate(0.000000,1280.000000) scale(0.100000,-0.100000)"
fill="#226f54" stroke="none">
<path d="M6225 12788 c-76 -41 -134 -129 -230 -343 -156 -347 -195 -403 -310
-437 -27 -9 -140 -12 -360 -13 -357 0 -386 -4 -443 -61 -32 -32 -34 -38 -29
-80 7 -66 61 -138 196 -263 213 -195 326 -314 351 -364 39 -82 27 -150 -76
-454 -74 -219 -88 -270 -92 -339 -7 -136 26 -171 151 -160 37 3 67 3 67 0 0
-16 -101 -237 -181 -394 -97 -193 -192 -355 -271 -464 -53 -73 -379 -484 -617
-779 -227 -281 -271 -353 -271 -448 0 -88 44 -141 147 -175 37 -13 69 -28 71
-33 5 -14 -146 -295 -241 -451 -181 -296 -386 -576 -590 -803 l-70 -77 12 -69
c14 -78 51 -145 102 -184 40 -30 145 -67 191 -67 64 0 66 -9 19 -112 -189
-410 -453 -774 -741 -1023 -82 -71 -99 -92 -110 -128 -39 -141 136 -290 351
-299 39 -1 63 -7 66 -15 9 -23 -123 -265 -242 -448 -158 -241 -257 -357 -500
-584 -162 -152 -195 -187 -223 -242 -44 -88 -50 -142 -20 -199 33 -64 105
-100 217 -107 53 -4 85 -11 88 -19 8 -22 -229 -365 -406 -589 -208 -261 -533
-597 -759 -785 l-102 -85 0 -50 c0 -129 75 -239 193 -283 181 -68 398 -48 604
57 105 53 256 97 353 103 l55 3 9 -62 c10 -74 3 -88 -52 -96 -60 -10 -142 -66
-184 -125 -108 -155 -50 -370 121 -454 67 -33 197 -33 261 0 170 88 225 280
127 442 -47 78 -115 121 -229 145 -27 5 -28 8 -28 68 0 91 1 91 117 84 235
-14 475 -102 657 -240 141 -107 238 -152 399 -189 72 -16 126 -21 247 -21 214
0 339 22 641 113 124 37 142 40 254 40 104 0 191 -9 337 -36 21 -4 42 -12 48
-19 10 -12 3 -124 -9 -144 -4 -6 -61 -20 -126 -31 -291 -50 -605 -151 -1094
-352 -875 -360 -1082 -421 -1671 -495 -184 -23 -830 -26 -1005 -5 -384 47
-700 114 -1060 228 -82 26 -157 47 -165 46 -27 -1 -108 -52 -139 -88 -30 -33
-30 -36 -15 -59 21 -32 98 -68 204 -94 119 -30 453 -86 655 -110 327 -39 881
-77 1010 -68 531 35 765 67 1050 142 223 59 339 101 616 225 339 151 636 266
924 357 319 100 762 200 786 176 8 -8 2 -46 -20 -139 -17 -70 -36 -133 -41
-139 -5 -6 -59 -11 -139 -13 -226 -3 -419 -33 -601 -94 -102 -33 -225 -86
-219 -92 2 -3 51 9 109 25 505 142 1127 108 1559 -87 34 -14 61 -33 61 -40 0
-8 -2 -14 -4 -14 -2 0 -57 -11 -122 -24 -182 -37 -301 -49 -441 -44 -90 3
-140 10 -167 21 -39 17 -39 17 -87 -14 -29 -18 -46 -36 -43 -44 31 -79 621 -8
1163 140 382 104 486 120 728 112 164 -5 190 -9 478 -72 l30 -6 -25 14 c-39
23 -228 87 -305 103 -38 8 -118 18 -177 21 -87 5 -109 9 -112 22 -12 41 -18
219 -8 225 6 4 60 -13 119 -38 405 -166 914 -319 1304 -390 297 -55 691 -93
1059 -104 563 -17 1875 37 2324 94 288 37 260 37 -984 13 -568 -11 -1246 -6
-1540 12 -658 39 -1245 185 -1909 474 -85 37 -206 84 -270 105 -63 22 -118 46
-123 54 -5 9 -7 59 -6 113 l3 98 65 23 c269 97 470 93 917 -18 305 -75 334
-80 469 -80 137 0 185 10 334 67 127 49 200 86 398 205 159 95 277 152 364
175 84 22 98 16 98 -41 0 -42 -2 -46 -27 -52 -150 -32 -246 -103 -302 -223
-23 -49 -26 -68 -26 -161 0 -93 3 -112 27 -162 34 -74 112 -152 186 -186 50
-24 69 -27 162 -27 93 0 112 3 162 27 236 110 295 420 117 612 -48 54 -141
104 -206 112 -71 10 -83 19 -83 62 0 63 5 66 126 59 139 -7 228 -26 439 -93
298 -96 386 -116 510 -118 106 -1 113 0 178 32 92 46 122 90 122 181 0 53 -7
79 -33 135 -49 105 -89 153 -327 396 -284 290 -460 498 -663 784 -90 125 -90
121 -1 110 121 -15 267 -10 325 9 138 47 171 163 86 306 -20 34 -57 79 -82 99
-290 236 -540 537 -749 902 -101 176 -234 447 -226 460 4 7 22 9 48 5 94 -14
248 34 274 85 25 50 -1 82 -207 253 -194 162 -238 204 -335 322 -165 200 -273
382 -349 590 -21 55 -49 130 -63 167 -14 37 -23 73 -20 81 3 9 30 16 84 20
113 9 204 40 253 86 36 34 40 43 40 85 0 26 -7 61 -16 79 -9 18 -109 127 -223
242 -429 435 -628 706 -896 1217 -41 78 -75 146 -75 151 0 5 15 26 34 47 68
76 109 249 89 385 -15 103 -48 164 -149 275 -217 237 -413 490 -586 755 -156
239 -314 516 -301 528 3 4 25 7 47 7 131 0 145 109 66 500 -56 274 -62 358
-30 427 33 73 93 124 400 335 133 92 199 153 226 212 59 128 -39 192 -346 226
-359 39 -441 55 -504 104 -63 47 -99 132 -191 441 -71 238 -108 313 -180 362
-38 26 -51 27 -80 11z"/>
</g>
</svg>
