<?xml version="1.0" encoding="UTF-8"?>
<svg id="Calque_3" data-name="Calque 3" xmlns="http://www.w3.org/2000/svg" viewBox="0 0 9.63 42.59">
  <defs>
    <style>
      .cls-1 {
        fill: #da2c38;
      }
    </style>
  </defs>
  <path class="cls-1" d="M9.46,.33l-3.18-.03s.38,1.94-1.92,3.98S.26,5.66,.26,5.66l.03,3.01s1.78,.32,1.82,2.53C2.14,12.83,.03,13.42,.03,13.42l.32,4.33s1.9,.39,2.13,2.47c.25,2.33-2.19,3.11-2.2,3.09l.16,3.77s2.24-.24,2,2.48-1.92,2.73-1.92,2.73l.05,3.11,.06,1.68s1.87,.15,3.8,1.26,2.03,4.04,2.03,4.04l2.9-.16L9.46,.33Z"/>
</svg>