<?xml version="1.0" encoding="utf-8"?>
<!-- Generator: Adobe Illustrator 27.0.1, SVG Export Plug-In . SVG Version: 6.00 Build 0)  -->
<svg version="1.1" id="Calque_3" xmlns="http://www.w3.org/2000/svg" xmlns:xlink="http://www.w3.org/1999/xlink" x="0px" y="0px"
	 viewBox="0 0 9.6 42.6" style="enable-background:new 0 0 9.6 42.6;" xml:space="preserve">
<style type="text/css">
	.st0{fill:#8D0801;}
</style>
<path class="st0" d="M9.5,0.3l-3.2,0c0,0,0.4,1.9-1.9,4S0.3,5.7,0.3,5.7l0,3c0,0,1.8,0.3,1.8,2.5c0,1.6-2.1,2.2-2.1,2.2l0.3,4.3
	c0,0,1.9,0.4,2.1,2.5c0.2,2.3-2.2,3.1-2.2,3.1l0.2,3.8c0,0,2.2-0.2,2,2.5s-1.9,2.7-1.9,2.7l0.1,3.1l0.1,1.7c0,0,1.9,0.2,3.8,1.3
	s2,4,2,4l2.9-0.2L9.5,0.3z"/>
</svg>
